<?xml version="1.0" encoding="UTF-8" standalone="no"?>
<!DOCTYPE svg PUBLIC "-//W3C//DTD SVG 1.1//EN"
 "http://www.w3.org/Graphics/SVG/1.1/DTD/svg11.dtd">
<!-- Generated by graphviz version 2.47.0 (20210316.0004)
 -->
<!-- Title: dependencies Pages: 1 -->
<svg width="512pt" height="284pt"
 viewBox="0.00 0.00 512.00 284.00" xmlns="http://www.w3.org/2000/svg" xmlns:xlink="http://www.w3.org/1999/xlink">
<g id="graph0" class="graph" transform="scale(1 1) rotate(0) translate(4 280)">
<title>dependencies</title>
<polygon fill="white" stroke="transparent" points="-4,4 -4,-280 508,-280 508,4 -4,4"/>
<text text-anchor="start" x="231.01" y="-42.4" font-family="Times-12" font-weight="bold" font-size="14.00">Legend</text>
<polygon fill="#ffffb3" stroke="transparent" points="18,-10 18,-30 38,-30 38,-10 18,-10"/>
<text text-anchor="start" x="41.63" y="-15.4" font-family="Times-12" font-size="14.00"> &#160;Declarations</text>
<polygon fill="#8dd3c7" stroke="transparent" points="131,-10 131,-30 151,-30 151,-10 131,-10"/>
<text text-anchor="start" x="154.73" y="-15.4" font-family="Times-12" font-size="14.00"> &#160;Module</text>
<polygon fill="#80b1d3" stroke="transparent" points="217,-10 217,-30 237,-30 237,-10 217,-10"/>
<text text-anchor="start" x="240.78" y="-15.4" font-family="Times-12" font-size="14.00"> &#160;Bootstrap</text>
<polygon fill="#fdb462" stroke="transparent" points="314,-10 314,-30 334,-30 334,-10 314,-10"/>
<text text-anchor="start" x="337.67" y="-15.4" font-family="Times-12" font-size="14.00"> &#160;Providers</text>
<polygon fill="#fb8072" stroke="transparent" points="410,-10 410,-30 430,-30 430,-10 410,-10"/>
<text text-anchor="start" x="433.73" y="-15.4" font-family="Times-12" font-size="14.00"> &#160;Exports</text>
<g id="clust1" class="cluster">
<title>cluster_MercadopagoModule</title>
<polygon fill="none" stroke="black" stroke-dasharray="1,5" points="8,-70 8,-268 496,-268 496,-70 8,-70"/>
</g>
<g id="clust3" class="cluster">
<title>cluster_MercadopagoModule_imports</title>
<polygon fill="none" stroke="black" points="226,-78 226,-130 488,-130 488,-78 226,-78"/>
</g>
<g id="clust6" class="cluster">
<title>cluster_MercadopagoModule_providers</title>
<polygon fill="none" stroke="black" points="16,-78 16,-130 218,-130 218,-78 16,-78"/>
</g>
<g id="clust4" class="cluster">
<title>cluster_MercadopagoModule_exports</title>
<polygon fill="none" stroke="black" points="222,-208 222,-260 376,-260 376,-208 222,-208"/>
</g>
<!-- OrdersModule -->
<g id="node1" class="node">
<title>OrdersModule</title>
<polygon fill="#8dd3c7" stroke="black" points="479.64,-122 476.64,-126 455.64,-126 452.64,-122 382.36,-122 382.36,-86 479.64,-86 479.64,-122"/>
<text text-anchor="middle" x="431" y="-99.8" font-family="Times,serif" font-size="14.00">OrdersModule</text>
</g>
<!-- MercadopagoModule -->
<g id="node3" class="node">
<title>MercadopagoModule</title>
<polygon fill="#8dd3c7" stroke="black" points="367.01,-187 364.01,-191 343.01,-191 340.01,-187 230.99,-187 230.99,-151 367.01,-151 367.01,-187"/>
<text text-anchor="middle" x="299" y="-164.8" font-family="Times,serif" font-size="14.00">MercadopagoModule</text>
</g>
<!-- OrdersModule&#45;&gt;MercadopagoModule -->
<g id="edge1" class="edge">
<title>OrdersModule&#45;&gt;MercadopagoModule</title>
<path fill="none" stroke="black" d="M431,-122.11C431,-141.34 431,-169 431,-169 431,-169 377.32,-169 377.32,-169"/>
<polygon fill="black" stroke="black" points="377.32,-165.5 367.32,-169 377.32,-172.5 377.32,-165.5"/>
</g>
<!-- SubscriptionModule -->
<g id="node2" class="node">
<title>SubscriptionModule</title>
<polygon fill="#8dd3c7" stroke="black" points="364.32,-122 361.32,-126 340.32,-126 337.32,-122 233.68,-122 233.68,-86 364.32,-86 364.32,-122"/>
<text text-anchor="middle" x="299" y="-99.8" font-family="Times,serif" font-size="14.00">SubscriptionModule</text>
</g>
<!-- SubscriptionModule&#45;&gt;MercadopagoModule -->
<g id="edge2" class="edge">
<title>SubscriptionModule&#45;&gt;MercadopagoModule</title>
<path fill="none" stroke="black" d="M299,-122.11C299,-122.11 299,-140.99 299,-140.99"/>
<polygon fill="black" stroke="black" points="295.5,-140.99 299,-150.99 302.5,-140.99 295.5,-140.99"/>
</g>
<!-- MercadopagoService  -->
<g id="node4" class="node">
<title>MercadopagoService </title>
<polygon fill="#fb8072" stroke="black" points="368.44,-252 229.56,-252 229.56,-216 368.44,-216 368.44,-252"/>
<text text-anchor="middle" x="299" y="-229.8" font-family="Times,serif" font-size="14.00">MercadopagoService </text>
</g>
<!-- MercadopagoModule&#45;&gt;MercadopagoService  -->
<g id="edge3" class="edge">
<title>MercadopagoModule&#45;&gt;MercadopagoService </title>
<path fill="none" stroke="black" stroke-dasharray="5,2" d="M299,-187.11C299,-187.11 299,-205.99 299,-205.99"/>
<polygon fill="black" stroke="black" points="295.5,-205.99 299,-215.99 302.5,-205.99 295.5,-205.99"/>
</g>
<!-- MercadopagoService -->
<g id="node5" class="node">
<title>MercadopagoService</title>
<ellipse fill="#fdb462" stroke="black" cx="117" cy="-104" rx="93.16" ry="18"/>
<text text-anchor="middle" x="117" y="-99.8" font-family="Times,serif" font-size="14.00">MercadopagoService</text>
</g>
<!-- MercadopagoService&#45;&gt;MercadopagoModule -->
<g id="edge4" class="edge">
<title>MercadopagoService&#45;&gt;MercadopagoModule</title>
<path fill="none" stroke="black" d="M117,-122.11C117,-141.34 117,-169 117,-169 117,-169 220.97,-169 220.97,-169"/>
<polygon fill="black" stroke="black" points="220.97,-172.5 230.97,-169 220.97,-165.5 220.97,-172.5"/>
</g>
</g>
</svg>
