<?xml version="1.0" encoding="UTF-8" standalone="no"?>
<!DOCTYPE svg PUBLIC "-//W3C//DTD SVG 1.1//EN"
 "http://www.w3.org/Graphics/SVG/1.1/DTD/svg11.dtd">
<!-- Generated by graphviz version 2.47.0 (20210316.0004)
 -->
<!-- Title: dependencies Pages: 1 -->
<svg width="751pt" height="211pt"
 viewBox="0.00 0.00 751.00 211.00" xmlns="http://www.w3.org/2000/svg" xmlns:xlink="http://www.w3.org/1999/xlink">
<g id="graph0" class="graph" transform="scale(1 1) rotate(0) translate(4 207)">
<title>dependencies</title>
<polygon fill="white" stroke="transparent" points="-4,4 -4,-207 747,-207 747,4 -4,4"/>
<text text-anchor="start" x="350.51" y="-42.4" font-family="Times-12" font-weight="bold" font-size="14.00">Legend</text>
<polygon fill="#ffffb3" stroke="transparent" points="137.5,-10 137.5,-30 157.5,-30 157.5,-10 137.5,-10"/>
<text text-anchor="start" x="161.13" y="-15.4" font-family="Times-12" font-size="14.00"> &#160;Declarations</text>
<polygon fill="#8dd3c7" stroke="transparent" points="250.5,-10 250.5,-30 270.5,-30 270.5,-10 250.5,-10"/>
<text text-anchor="start" x="274.23" y="-15.4" font-family="Times-12" font-size="14.00"> &#160;Module</text>
<polygon fill="#80b1d3" stroke="transparent" points="336.5,-10 336.5,-30 356.5,-30 356.5,-10 336.5,-10"/>
<text text-anchor="start" x="360.28" y="-15.4" font-family="Times-12" font-size="14.00"> &#160;Bootstrap</text>
<polygon fill="#fdb462" stroke="transparent" points="433.5,-10 433.5,-30 453.5,-30 453.5,-10 433.5,-10"/>
<text text-anchor="start" x="457.17" y="-15.4" font-family="Times-12" font-size="14.00"> &#160;Providers</text>
<polygon fill="#fb8072" stroke="transparent" points="529.5,-10 529.5,-30 549.5,-30 549.5,-10 529.5,-10"/>
<text text-anchor="start" x="553.23" y="-15.4" font-family="Times-12" font-size="14.00"> &#160;Exports</text>
<g id="clust1" class="cluster">
<title>cluster_AuthModule</title>
<polygon fill="none" stroke="black" stroke-dasharray="1,5" points="8,-70 8,-195 735,-195 735,-70 8,-70"/>
</g>
<g id="clust3" class="cluster">
<title>cluster_AuthModule_imports</title>
<polygon fill="none" stroke="black" points="373,-78 373,-130 727,-130 727,-78 373,-78"/>
</g>
<g id="clust6" class="cluster">
<title>cluster_AuthModule_providers</title>
<polygon fill="none" stroke="black" points="16,-78 16,-130 365,-130 365,-78 16,-78"/>
</g>
<!-- MailModule -->
<g id="node1" class="node">
<title>MailModule</title>
<polygon fill="#8dd3c7" stroke="black" points="718.99,-122 715.99,-126 694.99,-126 691.99,-122 633.01,-122 633.01,-86 718.99,-86 718.99,-122"/>
<text text-anchor="middle" x="676" y="-99.8" font-family="Times,serif" font-size="14.00">MailModule</text>
</g>
<!-- AuthModule -->
<g id="node4" class="node">
<title>AuthModule</title>
<polygon fill="#8dd3c7" stroke="black" points="467.55,-187 464.55,-191 443.55,-191 440.55,-187 380.45,-187 380.45,-151 467.55,-151 467.55,-187"/>
<text text-anchor="middle" x="424" y="-164.8" font-family="Times,serif" font-size="14.00">AuthModule</text>
</g>
<!-- MailModule&#45;&gt;AuthModule -->
<g id="edge1" class="edge">
<title>MailModule&#45;&gt;AuthModule</title>
<path fill="none" stroke="black" d="M676,-122.28C676,-143.32 676,-175 676,-175 676,-175 477.61,-175 477.61,-175"/>
<polygon fill="black" stroke="black" points="477.61,-171.5 467.61,-175 477.61,-178.5 477.61,-171.5"/>
</g>
<!-- SubscriptionModule -->
<g id="node2" class="node">
<title>SubscriptionModule</title>
<polygon fill="#8dd3c7" stroke="black" points="615.32,-122 612.32,-126 591.32,-126 588.32,-122 484.68,-122 484.68,-86 615.32,-86 615.32,-122"/>
<text text-anchor="middle" x="550" y="-99.8" font-family="Times,serif" font-size="14.00">SubscriptionModule</text>
</g>
<!-- SubscriptionModule&#45;&gt;AuthModule -->
<g id="edge2" class="edge">
<title>SubscriptionModule&#45;&gt;AuthModule</title>
<path fill="none" stroke="black" d="M550,-122.02C550,-139.37 550,-163 550,-163 550,-163 477.72,-163 477.72,-163"/>
<polygon fill="black" stroke="black" points="477.72,-159.5 467.72,-163 477.72,-166.5 477.72,-159.5"/>
</g>
<!-- UserModule -->
<g id="node3" class="node">
<title>UserModule</title>
<polygon fill="#8dd3c7" stroke="black" points="466.98,-122 463.98,-126 442.98,-126 439.98,-122 381.02,-122 381.02,-86 466.98,-86 466.98,-122"/>
<text text-anchor="middle" x="424" y="-99.8" font-family="Times,serif" font-size="14.00">UserModule</text>
</g>
<!-- UserModule&#45;&gt;AuthModule -->
<g id="edge3" class="edge">
<title>UserModule&#45;&gt;AuthModule</title>
<path fill="none" stroke="black" d="M424,-122.11C424,-122.11 424,-140.99 424,-140.99"/>
<polygon fill="black" stroke="black" points="420.5,-140.99 424,-150.99 427.5,-140.99 420.5,-140.99"/>
</g>
<!-- AuthService -->
<g id="node5" class="node">
<title>AuthService</title>
<ellipse fill="#fdb462" stroke="black" cx="298" cy="-104" rx="59.11" ry="18"/>
<text text-anchor="middle" x="298" y="-99.8" font-family="Times,serif" font-size="14.00">AuthService</text>
</g>
<!-- AuthService&#45;&gt;AuthModule -->
<g id="edge4" class="edge">
<title>AuthService&#45;&gt;AuthModule</title>
<path fill="none" stroke="black" d="M298,-122.02C298,-139.37 298,-163 298,-163 298,-163 370.28,-163 370.28,-163"/>
<polygon fill="black" stroke="black" points="370.28,-166.5 380.28,-163 370.28,-159.5 370.28,-166.5"/>
</g>
<!-- PasswordResetService -->
<g id="node6" class="node">
<title>PasswordResetService</title>
<ellipse fill="#fdb462" stroke="black" cx="122" cy="-104" rx="98.41" ry="18"/>
<text text-anchor="middle" x="122" y="-99.8" font-family="Times,serif" font-size="14.00">PasswordResetService</text>
</g>
<!-- PasswordResetService&#45;&gt;AuthModule -->
<g id="edge5" class="edge">
<title>PasswordResetService&#45;&gt;AuthModule</title>
<path fill="none" stroke="black" d="M122,-122.28C122,-143.32 122,-175 122,-175 122,-175 370.41,-175 370.41,-175"/>
<polygon fill="black" stroke="black" points="370.41,-178.5 380.41,-175 370.41,-171.5 370.41,-178.5"/>
</g>
</g>
</svg>
