<?xml version="1.0" encoding="UTF-8" standalone="no"?>
<!DOCTYPE svg PUBLIC "-//W3C//DTD SVG 1.1//EN"
 "http://www.w3.org/Graphics/SVG/1.1/DTD/svg11.dtd">
<!-- Generated by graphviz version 2.47.0 (20210316.0004)
 -->
<!-- Title: dependencies Pages: 1 -->
<svg width="726pt" height="284pt"
 viewBox="0.00 0.00 726.00 284.00" xmlns="http://www.w3.org/2000/svg" xmlns:xlink="http://www.w3.org/1999/xlink">
<g id="graph0" class="graph" transform="scale(1 1) rotate(0) translate(4 280)">
<title>dependencies</title>
<polygon fill="white" stroke="transparent" points="-4,4 -4,-280 722,-280 722,4 -4,4"/>
<text text-anchor="start" x="338.01" y="-42.4" font-family="Times-12" font-weight="bold" font-size="14.00">Legend</text>
<polygon fill="#ffffb3" stroke="transparent" points="125,-10 125,-30 145,-30 145,-10 125,-10"/>
<text text-anchor="start" x="148.63" y="-15.4" font-family="Times-12" font-size="14.00"> &#160;Declarations</text>
<polygon fill="#8dd3c7" stroke="transparent" points="238,-10 238,-30 258,-30 258,-10 238,-10"/>
<text text-anchor="start" x="261.73" y="-15.4" font-family="Times-12" font-size="14.00"> &#160;Module</text>
<polygon fill="#80b1d3" stroke="transparent" points="324,-10 324,-30 344,-30 344,-10 324,-10"/>
<text text-anchor="start" x="347.78" y="-15.4" font-family="Times-12" font-size="14.00"> &#160;Bootstrap</text>
<polygon fill="#fdb462" stroke="transparent" points="421,-10 421,-30 441,-30 441,-10 421,-10"/>
<text text-anchor="start" x="444.67" y="-15.4" font-family="Times-12" font-size="14.00"> &#160;Providers</text>
<polygon fill="#fb8072" stroke="transparent" points="517,-10 517,-30 537,-30 537,-10 517,-10"/>
<text text-anchor="start" x="540.73" y="-15.4" font-family="Times-12" font-size="14.00"> &#160;Exports</text>
<g id="clust1" class="cluster">
<title>cluster_OrdersModule</title>
<polygon fill="none" stroke="black" stroke-dasharray="1,5" points="8,-70 8,-268 710,-268 710,-70 8,-70"/>
</g>
<g id="clust3" class="cluster">
<title>cluster_OrdersModule_imports</title>
<polygon fill="none" stroke="black" points="474,-78 474,-130 702,-130 702,-78 474,-78"/>
</g>
<g id="clust4" class="cluster">
<title>cluster_OrdersModule_exports</title>
<polygon fill="none" stroke="black" points="377,-208 377,-260 527,-260 527,-208 377,-208"/>
</g>
<g id="clust6" class="cluster">
<title>cluster_OrdersModule_providers</title>
<polygon fill="none" stroke="black" points="16,-78 16,-130 466,-130 466,-78 16,-78"/>
</g>
<!-- MailModule -->
<g id="node1" class="node">
<title>MailModule</title>
<polygon fill="#8dd3c7" stroke="black" points="693.99,-122 690.99,-126 669.99,-126 666.99,-122 608.01,-122 608.01,-86 693.99,-86 693.99,-122"/>
<text text-anchor="middle" x="651" y="-99.8" font-family="Times,serif" font-size="14.00">MailModule</text>
</g>
<!-- OrdersModule -->
<g id="node3" class="node">
<title>OrdersModule</title>
<polygon fill="#8dd3c7" stroke="black" points="500.64,-187 497.64,-191 476.64,-191 473.64,-187 403.36,-187 403.36,-151 500.64,-151 500.64,-187"/>
<text text-anchor="middle" x="452" y="-164.8" font-family="Times,serif" font-size="14.00">OrdersModule</text>
</g>
<!-- MailModule&#45;&gt;OrdersModule -->
<g id="edge1" class="edge">
<title>MailModule&#45;&gt;OrdersModule</title>
<path fill="none" stroke="black" d="M651,-122.11C651,-141.34 651,-169 651,-169 651,-169 510.68,-169 510.68,-169"/>
<polygon fill="black" stroke="black" points="510.68,-165.5 500.68,-169 510.68,-172.5 510.68,-165.5"/>
</g>
<!-- PaymentModule -->
<g id="node2" class="node">
<title>PaymentModule</title>
<polygon fill="#8dd3c7" stroke="black" points="590.04,-122 587.04,-126 566.04,-126 563.04,-122 481.96,-122 481.96,-86 590.04,-86 590.04,-122"/>
<text text-anchor="middle" x="536" y="-99.8" font-family="Times,serif" font-size="14.00">PaymentModule</text>
</g>
<!-- PaymentModule&#45;&gt;OrdersModule -->
<g id="edge2" class="edge">
<title>PaymentModule&#45;&gt;OrdersModule</title>
<path fill="none" stroke="black" d="M491.27,-122.11C491.27,-122.11 491.27,-140.99 491.27,-140.99"/>
<polygon fill="black" stroke="black" points="487.77,-140.99 491.27,-150.99 494.77,-140.99 487.77,-140.99"/>
</g>
<!-- BuyerOrdersService  -->
<g id="node4" class="node">
<title>BuyerOrdersService </title>
<polygon fill="#fb8072" stroke="black" points="518.78,-252 385.22,-252 385.22,-216 518.78,-216 518.78,-252"/>
<text text-anchor="middle" x="452" y="-229.8" font-family="Times,serif" font-size="14.00">BuyerOrdersService </text>
</g>
<!-- OrdersModule&#45;&gt;BuyerOrdersService  -->
<g id="edge3" class="edge">
<title>OrdersModule&#45;&gt;BuyerOrdersService </title>
<path fill="none" stroke="black" stroke-dasharray="5,2" d="M452,-187.11C452,-187.11 452,-205.99 452,-205.99"/>
<polygon fill="black" stroke="black" points="448.5,-205.99 452,-215.99 455.5,-205.99 448.5,-205.99"/>
</g>
<!-- BuyerOrdersService -->
<g id="node5" class="node">
<title>BuyerOrdersService</title>
<ellipse fill="#fdb462" stroke="black" cx="368" cy="-104" rx="89.72" ry="18"/>
<text text-anchor="middle" x="368" y="-99.8" font-family="Times,serif" font-size="14.00">BuyerOrdersService</text>
</g>
<!-- BuyerOrdersService&#45;&gt;OrdersModule -->
<g id="edge4" class="edge">
<title>BuyerOrdersService&#45;&gt;OrdersModule</title>
<path fill="none" stroke="black" d="M430.52,-117.15C430.52,-117.15 430.52,-140.69 430.52,-140.69"/>
<polygon fill="black" stroke="black" points="427.02,-140.69 430.52,-150.69 434.02,-140.69 427.02,-140.69"/>
</g>
<!-- PhotographerOrdersService -->
<g id="node6" class="node">
<title>PhotographerOrdersService</title>
<ellipse fill="#fdb462" stroke="black" cx="142" cy="-104" rx="118.08" ry="18"/>
<text text-anchor="middle" x="142" y="-99.8" font-family="Times,serif" font-size="14.00">PhotographerOrdersService</text>
</g>
<!-- PhotographerOrdersService&#45;&gt;OrdersModule -->
<g id="edge5" class="edge">
<title>PhotographerOrdersService&#45;&gt;OrdersModule</title>
<path fill="none" stroke="black" d="M142,-122.11C142,-141.34 142,-169 142,-169 142,-169 393.22,-169 393.22,-169"/>
<polygon fill="black" stroke="black" points="393.22,-172.5 403.22,-169 393.22,-165.5 393.22,-172.5"/>
</g>
</g>
</svg>
