<?xml version="1.0" encoding="UTF-8" standalone="no"?>
<!DOCTYPE svg PUBLIC "-//W3C//DTD SVG 1.1//EN"
 "http://www.w3.org/Graphics/SVG/1.1/DTD/svg11.dtd">
<!-- Generated by graphviz version 2.47.0 (20210316.0004)
 -->
<!-- Title: dependencies Pages: 1 -->
<svg width="504pt" height="211pt"
 viewBox="0.00 0.00 504.00 211.00" xmlns="http://www.w3.org/2000/svg" xmlns:xlink="http://www.w3.org/1999/xlink">
<g id="graph0" class="graph" transform="scale(1 1) rotate(0) translate(4 207)">
<title>dependencies</title>
<polygon fill="white" stroke="transparent" points="-4,4 -4,-207 500,-207 500,4 -4,4"/>
<text text-anchor="start" x="227.01" y="-42.4" font-family="Times-12" font-weight="bold" font-size="14.00">Legend</text>
<polygon fill="#ffffb3" stroke="transparent" points="14,-10 14,-30 34,-30 34,-10 14,-10"/>
<text text-anchor="start" x="37.63" y="-15.4" font-family="Times-12" font-size="14.00"> &#160;Declarations</text>
<polygon fill="#8dd3c7" stroke="transparent" points="127,-10 127,-30 147,-30 147,-10 127,-10"/>
<text text-anchor="start" x="150.73" y="-15.4" font-family="Times-12" font-size="14.00"> &#160;Module</text>
<polygon fill="#80b1d3" stroke="transparent" points="213,-10 213,-30 233,-30 233,-10 213,-10"/>
<text text-anchor="start" x="236.78" y="-15.4" font-family="Times-12" font-size="14.00"> &#160;Bootstrap</text>
<polygon fill="#fdb462" stroke="transparent" points="310,-10 310,-30 330,-30 330,-10 310,-10"/>
<text text-anchor="start" x="333.67" y="-15.4" font-family="Times-12" font-size="14.00"> &#160;Providers</text>
<polygon fill="#fb8072" stroke="transparent" points="406,-10 406,-30 426,-30 426,-10 406,-10"/>
<text text-anchor="start" x="429.73" y="-15.4" font-family="Times-12" font-size="14.00"> &#160;Exports</text>
<g id="clust1" class="cluster">
<title>cluster_SeedModule</title>
<polygon fill="none" stroke="black" stroke-dasharray="1,5" points="118,-70 118,-195 378,-195 378,-70 118,-70"/>
</g>
<g id="clust6" class="cluster">
<title>cluster_SeedModule_providers</title>
<polygon fill="none" stroke="black" points="236,-78 236,-130 370,-130 370,-78 236,-78"/>
</g>
<g id="clust3" class="cluster">
<title>cluster_SeedModule_imports</title>
<polygon fill="none" stroke="black" points="126,-78 126,-130 228,-130 228,-78 126,-78"/>
</g>
<!-- UserModule -->
<g id="node1" class="node">
<title>UserModule</title>
<polygon fill="#8dd3c7" stroke="black" points="219.98,-122 216.98,-126 195.98,-126 192.98,-122 134.02,-122 134.02,-86 219.98,-86 219.98,-122"/>
<text text-anchor="middle" x="177" y="-99.8" font-family="Times,serif" font-size="14.00">UserModule</text>
</g>
<!-- SeedModule -->
<g id="node2" class="node">
<title>SeedModule</title>
<polygon fill="#8dd3c7" stroke="black" points="283.26,-187 280.26,-191 259.26,-191 256.26,-187 196.74,-187 196.74,-151 283.26,-151 283.26,-187"/>
<text text-anchor="middle" x="240" y="-164.8" font-family="Times,serif" font-size="14.00">SeedModule</text>
</g>
<!-- UserModule&#45;&gt;SeedModule -->
<g id="edge1" class="edge">
<title>UserModule&#45;&gt;SeedModule</title>
<path fill="none" stroke="black" d="M208.3,-122.11C208.3,-122.11 208.3,-140.99 208.3,-140.99"/>
<polygon fill="black" stroke="black" points="204.8,-140.99 208.3,-150.99 211.8,-140.99 204.8,-140.99"/>
</g>
<!-- SeedService -->
<g id="node3" class="node">
<title>SeedService</title>
<ellipse fill="#fdb462" stroke="black" cx="303" cy="-104" rx="58.53" ry="18"/>
<text text-anchor="middle" x="303" y="-99.8" font-family="Times,serif" font-size="14.00">SeedService</text>
</g>
<!-- SeedService&#45;&gt;SeedModule -->
<g id="edge2" class="edge">
<title>SeedService&#45;&gt;SeedModule</title>
<path fill="none" stroke="black" d="M263.81,-117.47C263.81,-117.47 263.81,-140.86 263.81,-140.86"/>
<polygon fill="black" stroke="black" points="260.31,-140.86 263.81,-150.86 267.31,-140.86 260.31,-140.86"/>
</g>
</g>
</svg>
