<?xml version="1.0" encoding="UTF-8" standalone="no"?>
<!DOCTYPE svg PUBLIC "-//W3C//DTD SVG 1.1//EN"
 "http://www.w3.org/Graphics/SVG/1.1/DTD/svg11.dtd">
<!-- Generated by graphviz version 2.47.0 (20210316.0004)
 -->
<!-- Title: dependencies Pages: 1 -->
<svg width="1553pt" height="211pt"
 viewBox="0.00 0.00 1553.00 211.00" xmlns="http://www.w3.org/2000/svg" xmlns:xlink="http://www.w3.org/1999/xlink">
<g id="graph0" class="graph" transform="scale(1 1) rotate(0) translate(4 207)">
<title>dependencies</title>
<polygon fill="white" stroke="transparent" points="-4,4 -4,-207 1549,-207 1549,4 -4,4"/>
<text text-anchor="start" x="751.51" y="-42.4" font-family="Times-12" font-weight="bold" font-size="14.00">Legend</text>
<polygon fill="#ffffb3" stroke="transparent" points="538.5,-10 538.5,-30 558.5,-30 558.5,-10 538.5,-10"/>
<text text-anchor="start" x="562.13" y="-15.4" font-family="Times-12" font-size="14.00"> &#160;Declarations</text>
<polygon fill="#8dd3c7" stroke="transparent" points="651.5,-10 651.5,-30 671.5,-30 671.5,-10 651.5,-10"/>
<text text-anchor="start" x="675.23" y="-15.4" font-family="Times-12" font-size="14.00"> &#160;Module</text>
<polygon fill="#80b1d3" stroke="transparent" points="737.5,-10 737.5,-30 757.5,-30 757.5,-10 737.5,-10"/>
<text text-anchor="start" x="761.28" y="-15.4" font-family="Times-12" font-size="14.00"> &#160;Bootstrap</text>
<polygon fill="#fdb462" stroke="transparent" points="834.5,-10 834.5,-30 854.5,-30 854.5,-10 834.5,-10"/>
<text text-anchor="start" x="858.17" y="-15.4" font-family="Times-12" font-size="14.00"> &#160;Providers</text>
<polygon fill="#fb8072" stroke="transparent" points="930.5,-10 930.5,-30 950.5,-30 950.5,-10 930.5,-10"/>
<text text-anchor="start" x="954.23" y="-15.4" font-family="Times-12" font-size="14.00"> &#160;Exports</text>
<g id="clust1" class="cluster">
<title>cluster_AppModule</title>
<polygon fill="none" stroke="black" stroke-dasharray="1,5" points="8,-70 8,-195 1537,-195 1537,-70 8,-70"/>
</g>
<g id="clust3" class="cluster">
<title>cluster_AppModule_imports</title>
<polygon fill="none" stroke="black" points="16,-78 16,-130 1529,-130 1529,-78 16,-78"/>
</g>
<!-- AdminModule -->
<g id="node1" class="node">
<title>AdminModule</title>
<polygon fill="#8dd3c7" stroke="black" points="1521.44,-122 1518.44,-126 1497.44,-126 1494.44,-122 1422.56,-122 1422.56,-86 1521.44,-86 1521.44,-122"/>
<text text-anchor="middle" x="1472" y="-99.8" font-family="Times,serif" font-size="14.00">AdminModule</text>
</g>
<!-- AppModule -->
<g id="node14" class="node">
<title>AppModule</title>
<polygon fill="#8dd3c7" stroke="black" points="842.66,-187 839.66,-191 818.66,-191 815.66,-187 759.34,-187 759.34,-151 842.66,-151 842.66,-187"/>
<text text-anchor="middle" x="801" y="-164.8" font-family="Times,serif" font-size="14.00">AppModule</text>
</g>
<!-- AdminModule&#45;&gt;AppModule -->
<g id="edge1" class="edge">
<title>AdminModule&#45;&gt;AppModule</title>
<path fill="none" stroke="black" d="M1472,-122.09C1472,-145.13 1472,-182 1472,-182 1472,-182 852.72,-182 852.72,-182"/>
<polygon fill="black" stroke="black" points="852.72,-178.5 842.72,-182 852.72,-185.5 852.72,-178.5"/>
</g>
<!-- AlbumModule -->
<g id="node2" class="node">
<title>AlbumModule</title>
<polygon fill="#8dd3c7" stroke="black" points="1405.44,-122 1402.44,-126 1381.44,-126 1378.44,-122 1306.56,-122 1306.56,-86 1405.44,-86 1405.44,-122"/>
<text text-anchor="middle" x="1356" y="-99.8" font-family="Times,serif" font-size="14.00">AlbumModule</text>
</g>
<!-- AlbumModule&#45;&gt;AppModule -->
<g id="edge2" class="edge">
<title>AlbumModule&#45;&gt;AppModule</title>
<path fill="none" stroke="black" d="M1356,-122.04C1356,-143.66 1356,-177 1356,-177 1356,-177 852.72,-177 852.72,-177"/>
<polygon fill="black" stroke="black" points="852.72,-173.5 842.72,-177 852.72,-180.5 852.72,-173.5"/>
</g>
<!-- AuthModule -->
<g id="node3" class="node">
<title>AuthModule</title>
<polygon fill="#8dd3c7" stroke="black" points="1288.55,-122 1285.55,-126 1264.55,-126 1261.55,-122 1201.45,-122 1201.45,-86 1288.55,-86 1288.55,-122"/>
<text text-anchor="middle" x="1245" y="-99.8" font-family="Times,serif" font-size="14.00">AuthModule</text>
</g>
<!-- AuthModule&#45;&gt;AppModule -->
<g id="edge3" class="edge">
<title>AuthModule&#45;&gt;AppModule</title>
<path fill="none" stroke="black" d="M1245,-122.22C1245,-142.37 1245,-172 1245,-172 1245,-172 852.77,-172 852.77,-172"/>
<polygon fill="black" stroke="black" points="852.77,-168.5 842.77,-172 852.77,-175.5 852.77,-168.5"/>
</g>
<!-- FilesModule -->
<g id="node4" class="node">
<title>FilesModule</title>
<polygon fill="#8dd3c7" stroke="black" points="1183.27,-122 1180.27,-126 1159.27,-126 1156.27,-122 1096.73,-122 1096.73,-86 1183.27,-86 1183.27,-122"/>
<text text-anchor="middle" x="1140" y="-99.8" font-family="Times,serif" font-size="14.00">FilesModule</text>
</g>
<!-- FilesModule&#45;&gt;AppModule -->
<g id="edge4" class="edge">
<title>FilesModule&#45;&gt;AppModule</title>
<path fill="none" stroke="black" d="M1140,-122.22C1140,-140.83 1140,-167 1140,-167 1140,-167 852.91,-167 852.91,-167"/>
<polygon fill="black" stroke="black" points="852.91,-163.5 842.91,-167 852.91,-170.5 852.91,-163.5"/>
</g>
<!-- LeadModule -->
<g id="node5" class="node">
<title>LeadModule</title>
<polygon fill="#8dd3c7" stroke="black" points="1078.53,-122 1075.53,-126 1054.53,-126 1051.53,-122 991.47,-122 991.47,-86 1078.53,-86 1078.53,-122"/>
<text text-anchor="middle" x="1035" y="-99.8" font-family="Times,serif" font-size="14.00">LeadModule</text>
</g>
<!-- LeadModule&#45;&gt;AppModule -->
<g id="edge5" class="edge">
<title>LeadModule&#45;&gt;AppModule</title>
<path fill="none" stroke="black" d="M1035,-122.03C1035,-139.06 1035,-162 1035,-162 1035,-162 852.83,-162 852.83,-162"/>
<polygon fill="black" stroke="black" points="852.83,-158.5 842.83,-162 852.83,-165.5 852.83,-158.5"/>
</g>
<!-- MailModule -->
<g id="node6" class="node">
<title>MailModule</title>
<polygon fill="#8dd3c7" stroke="black" points="972.99,-122 969.99,-126 948.99,-126 945.99,-122 887.01,-122 887.01,-86 972.99,-86 972.99,-122"/>
<text text-anchor="middle" x="930" y="-99.8" font-family="Times,serif" font-size="14.00">MailModule</text>
</g>
<!-- MailModule&#45;&gt;AppModule -->
<g id="edge6" class="edge">
<title>MailModule&#45;&gt;AppModule</title>
<path fill="none" stroke="black" d="M930,-122.24C930,-137.57 930,-157 930,-157 930,-157 852.88,-157 852.88,-157"/>
<polygon fill="black" stroke="black" points="852.88,-153.5 842.88,-157 852.88,-160.5 852.88,-153.5"/>
</g>
<!-- MercadopagoModule -->
<g id="node7" class="node">
<title>MercadopagoModule</title>
<polygon fill="#8dd3c7" stroke="black" points="869.01,-122 866.01,-126 845.01,-126 842.01,-122 732.99,-122 732.99,-86 869.01,-86 869.01,-122"/>
<text text-anchor="middle" x="801" y="-99.8" font-family="Times,serif" font-size="14.00">MercadopagoModule</text>
</g>
<!-- MercadopagoModule&#45;&gt;AppModule -->
<g id="edge7" class="edge">
<title>MercadopagoModule&#45;&gt;AppModule</title>
<path fill="none" stroke="black" d="M801,-122.11C801,-122.11 801,-140.99 801,-140.99"/>
<polygon fill="black" stroke="black" points="797.5,-140.99 801,-150.99 804.5,-140.99 797.5,-140.99"/>
</g>
<!-- OrdersModule -->
<g id="node8" class="node">
<title>OrdersModule</title>
<polygon fill="#8dd3c7" stroke="black" points="714.64,-122 711.64,-126 690.64,-126 687.64,-122 617.36,-122 617.36,-86 714.64,-86 714.64,-122"/>
<text text-anchor="middle" x="666" y="-99.8" font-family="Times,serif" font-size="14.00">OrdersModule</text>
</g>
<!-- OrdersModule&#45;&gt;AppModule -->
<g id="edge8" class="edge">
<title>OrdersModule&#45;&gt;AppModule</title>
<path fill="none" stroke="black" d="M666,-122.24C666,-137.57 666,-157 666,-157 666,-157 749.03,-157 749.03,-157"/>
<polygon fill="black" stroke="black" points="749.03,-160.5 759.03,-157 749.03,-153.5 749.03,-160.5"/>
</g>
<!-- PaymentModule -->
<g id="node9" class="node">
<title>PaymentModule</title>
<polygon fill="#8dd3c7" stroke="black" points="599.04,-122 596.04,-126 575.04,-126 572.04,-122 490.96,-122 490.96,-86 599.04,-86 599.04,-122"/>
<text text-anchor="middle" x="545" y="-99.8" font-family="Times,serif" font-size="14.00">PaymentModule</text>
</g>
<!-- PaymentModule&#45;&gt;AppModule -->
<g id="edge9" class="edge">
<title>PaymentModule&#45;&gt;AppModule</title>
<path fill="none" stroke="black" d="M545,-122.03C545,-139.06 545,-162 545,-162 545,-162 749.3,-162 749.3,-162"/>
<polygon fill="black" stroke="black" points="749.3,-165.5 759.3,-162 749.3,-158.5 749.3,-165.5"/>
</g>
<!-- PhotoModule -->
<g id="node10" class="node">
<title>PhotoModule</title>
<polygon fill="#8dd3c7" stroke="black" points="473.22,-122 470.22,-126 449.22,-126 446.22,-122 380.78,-122 380.78,-86 473.22,-86 473.22,-122"/>
<text text-anchor="middle" x="427" y="-99.8" font-family="Times,serif" font-size="14.00">PhotoModule</text>
</g>
<!-- PhotoModule&#45;&gt;AppModule -->
<g id="edge10" class="edge">
<title>PhotoModule&#45;&gt;AppModule</title>
<path fill="none" stroke="black" d="M427,-122.22C427,-140.83 427,-167 427,-167 427,-167 749.19,-167 749.19,-167"/>
<polygon fill="black" stroke="black" points="749.19,-170.5 759.19,-167 749.19,-163.5 749.19,-170.5"/>
</g>
<!-- SeedModule -->
<g id="node11" class="node">
<title>SeedModule</title>
<polygon fill="#8dd3c7" stroke="black" points="363.26,-122 360.26,-126 339.26,-126 336.26,-122 276.74,-122 276.74,-86 363.26,-86 363.26,-122"/>
<text text-anchor="middle" x="320" y="-99.8" font-family="Times,serif" font-size="14.00">SeedModule</text>
</g>
<!-- SeedModule&#45;&gt;AppModule -->
<g id="edge11" class="edge">
<title>SeedModule&#45;&gt;AppModule</title>
<path fill="none" stroke="black" d="M320,-122.22C320,-142.37 320,-172 320,-172 320,-172 749.16,-172 749.16,-172"/>
<polygon fill="black" stroke="black" points="749.16,-175.5 759.16,-172 749.16,-168.5 749.16,-175.5"/>
</g>
<!-- SubscriptionModule -->
<g id="node12" class="node">
<title>SubscriptionModule</title>
<polygon fill="#8dd3c7" stroke="black" points="258.32,-122 255.32,-126 234.32,-126 231.32,-122 127.68,-122 127.68,-86 258.32,-86 258.32,-122"/>
<text text-anchor="middle" x="193" y="-99.8" font-family="Times,serif" font-size="14.00">SubscriptionModule</text>
</g>
<!-- SubscriptionModule&#45;&gt;AppModule -->
<g id="edge12" class="edge">
<title>SubscriptionModule&#45;&gt;AppModule</title>
<path fill="none" stroke="black" d="M193,-122.04C193,-143.66 193,-177 193,-177 193,-177 749.21,-177 749.21,-177"/>
<polygon fill="black" stroke="black" points="749.21,-180.5 759.21,-177 749.21,-173.5 749.21,-180.5"/>
</g>
<!-- UserModule -->
<g id="node13" class="node">
<title>UserModule</title>
<polygon fill="#8dd3c7" stroke="black" points="109.98,-122 106.98,-126 85.98,-126 82.98,-122 24.02,-122 24.02,-86 109.98,-86 109.98,-122"/>
<text text-anchor="middle" x="67" y="-99.8" font-family="Times,serif" font-size="14.00">UserModule</text>
</g>
<!-- UserModule&#45;&gt;AppModule -->
<g id="edge13" class="edge">
<title>UserModule&#45;&gt;AppModule</title>
<path fill="none" stroke="black" d="M67,-122.09C67,-145.13 67,-182 67,-182 67,-182 749.17,-182 749.17,-182"/>
<polygon fill="black" stroke="black" points="749.17,-185.5 759.17,-182 749.17,-178.5 749.17,-185.5"/>
</g>
</g>
</svg>
