<?xml version="1.0" encoding="UTF-8" standalone="no"?>
<!DOCTYPE svg PUBLIC "-//W3C//DTD SVG 1.1//EN"
 "http://www.w3.org/Graphics/SVG/1.1/DTD/svg11.dtd">
<!-- Generated by graphviz version 2.47.0 (20210316.0004)
 -->
<!-- Title: dependencies Pages: 1 -->
<svg width="504pt" height="284pt"
 viewBox="0.00 0.00 504.00 284.00" xmlns="http://www.w3.org/2000/svg" xmlns:xlink="http://www.w3.org/1999/xlink">
<g id="graph0" class="graph" transform="scale(1 1) rotate(0) translate(4 280)">
<title>dependencies</title>
<polygon fill="white" stroke="transparent" points="-4,4 -4,-280 500,-280 500,4 -4,4"/>
<text text-anchor="start" x="227.01" y="-42.4" font-family="Times-12" font-weight="bold" font-size="14.00">Legend</text>
<polygon fill="#ffffb3" stroke="transparent" points="14,-10 14,-30 34,-30 34,-10 14,-10"/>
<text text-anchor="start" x="37.63" y="-15.4" font-family="Times-12" font-size="14.00"> &#160;Declarations</text>
<polygon fill="#8dd3c7" stroke="transparent" points="127,-10 127,-30 147,-30 147,-10 127,-10"/>
<text text-anchor="start" x="150.73" y="-15.4" font-family="Times-12" font-size="14.00"> &#160;Module</text>
<polygon fill="#80b1d3" stroke="transparent" points="213,-10 213,-30 233,-30 233,-10 213,-10"/>
<text text-anchor="start" x="236.78" y="-15.4" font-family="Times-12" font-size="14.00"> &#160;Bootstrap</text>
<polygon fill="#fdb462" stroke="transparent" points="310,-10 310,-30 330,-30 330,-10 310,-10"/>
<text text-anchor="start" x="333.67" y="-15.4" font-family="Times-12" font-size="14.00"> &#160;Providers</text>
<polygon fill="#fb8072" stroke="transparent" points="406,-10 406,-30 426,-30 426,-10 406,-10"/>
<text text-anchor="start" x="429.73" y="-15.4" font-family="Times-12" font-size="14.00"> &#160;Exports</text>
<g id="clust1" class="cluster">
<title>cluster_SubscriptionModule</title>
<polygon fill="none" stroke="black" stroke-dasharray="1,5" points="36,-70 36,-268 460,-268 460,-70 36,-70"/>
</g>
<g id="clust6" class="cluster">
<title>cluster_SubscriptionModule_providers</title>
<polygon fill="none" stroke="black" points="258,-78 258,-130 452,-130 452,-78 258,-78"/>
</g>
<g id="clust3" class="cluster">
<title>cluster_SubscriptionModule_imports</title>
<polygon fill="none" stroke="black" points="44,-78 44,-130 250,-130 250,-78 44,-78"/>
</g>
<g id="clust4" class="cluster">
<title>cluster_SubscriptionModule_exports</title>
<polygon fill="none" stroke="black" points="125,-208 125,-260 273,-260 273,-208 125,-208"/>
</g>
<!-- MailModule -->
<g id="node1" class="node">
<title>MailModule</title>
<polygon fill="#8dd3c7" stroke="black" points="241.99,-122 238.99,-126 217.99,-126 214.99,-122 156.01,-122 156.01,-86 241.99,-86 241.99,-122"/>
<text text-anchor="middle" x="199" y="-99.8" font-family="Times,serif" font-size="14.00">MailModule</text>
</g>
<!-- SubscriptionModule -->
<g id="node3" class="node">
<title>SubscriptionModule</title>
<polygon fill="#8dd3c7" stroke="black" points="264.32,-187 261.32,-191 240.32,-191 237.32,-187 133.68,-187 133.68,-151 264.32,-151 264.32,-187"/>
<text text-anchor="middle" x="199" y="-164.8" font-family="Times,serif" font-size="14.00">SubscriptionModule</text>
</g>
<!-- MailModule&#45;&gt;SubscriptionModule -->
<g id="edge1" class="edge">
<title>MailModule&#45;&gt;SubscriptionModule</title>
<path fill="none" stroke="black" d="M199,-122.11C199,-122.11 199,-140.99 199,-140.99"/>
<polygon fill="black" stroke="black" points="195.5,-140.99 199,-150.99 202.5,-140.99 195.5,-140.99"/>
</g>
<!-- UserModule -->
<g id="node2" class="node">
<title>UserModule</title>
<polygon fill="#8dd3c7" stroke="black" points="137.98,-122 134.98,-126 113.98,-126 110.98,-122 52.02,-122 52.02,-86 137.98,-86 137.98,-122"/>
<text text-anchor="middle" x="95" y="-99.8" font-family="Times,serif" font-size="14.00">UserModule</text>
</g>
<!-- UserModule&#45;&gt;SubscriptionModule -->
<g id="edge2" class="edge">
<title>UserModule&#45;&gt;SubscriptionModule</title>
<path fill="none" stroke="black" d="M138.41,-104C143.54,-104 147,-104 147,-104 147,-104 147,-140.89 147,-140.89"/>
<polygon fill="black" stroke="black" points="143.5,-140.89 147,-150.89 150.5,-140.89 143.5,-140.89"/>
</g>
<!-- SubscriptionService  -->
<g id="node4" class="node">
<title>SubscriptionService </title>
<polygon fill="#fb8072" stroke="black" points="265.25,-252 132.75,-252 132.75,-216 265.25,-216 265.25,-252"/>
<text text-anchor="middle" x="199" y="-229.8" font-family="Times,serif" font-size="14.00">SubscriptionService </text>
</g>
<!-- SubscriptionModule&#45;&gt;SubscriptionService  -->
<g id="edge3" class="edge">
<title>SubscriptionModule&#45;&gt;SubscriptionService </title>
<path fill="none" stroke="black" stroke-dasharray="5,2" d="M199,-187.11C199,-187.11 199,-205.99 199,-205.99"/>
<polygon fill="black" stroke="black" points="195.5,-205.99 199,-215.99 202.5,-205.99 195.5,-205.99"/>
</g>
<!-- SubscriptionService -->
<g id="node5" class="node">
<title>SubscriptionService</title>
<ellipse fill="#fdb462" stroke="black" cx="355" cy="-104" rx="88.62" ry="18"/>
<text text-anchor="middle" x="355" y="-99.8" font-family="Times,serif" font-size="14.00">SubscriptionService</text>
</g>
<!-- SubscriptionService&#45;&gt;SubscriptionModule -->
<g id="edge4" class="edge">
<title>SubscriptionService&#45;&gt;SubscriptionModule</title>
<path fill="none" stroke="black" d="M265.99,-104C258.13,-104 253.08,-104 253.08,-104 253.08,-104 253.08,-140.89 253.08,-140.89"/>
<polygon fill="black" stroke="black" points="249.58,-140.89 253.08,-150.89 256.58,-140.89 249.58,-140.89"/>
</g>
</g>
</svg>
