<?xml version="1.0" encoding="UTF-8" standalone="no"?>
<!DOCTYPE svg PUBLIC "-//W3C//DTD SVG 1.1//EN"
 "http://www.w3.org/Graphics/SVG/1.1/DTD/svg11.dtd">
<!-- Generated by graphviz version 2.47.0 (20210316.0004)
 -->
<!-- Title: dependencies Pages: 1 -->
<svg width="506pt" height="284pt"
 viewBox="0.00 0.00 506.00 284.00" xmlns="http://www.w3.org/2000/svg" xmlns:xlink="http://www.w3.org/1999/xlink">
<g id="graph0" class="graph" transform="scale(1 1) rotate(0) translate(4 280)">
<title>dependencies</title>
<polygon fill="white" stroke="transparent" points="-4,4 -4,-280 502,-280 502,4 -4,4"/>
<text text-anchor="start" x="228.01" y="-42.4" font-family="Times-12" font-weight="bold" font-size="14.00">Legend</text>
<polygon fill="#ffffb3" stroke="transparent" points="15,-10 15,-30 35,-30 35,-10 15,-10"/>
<text text-anchor="start" x="38.63" y="-15.4" font-family="Times-12" font-size="14.00"> &#160;Declarations</text>
<polygon fill="#8dd3c7" stroke="transparent" points="128,-10 128,-30 148,-30 148,-10 128,-10"/>
<text text-anchor="start" x="151.73" y="-15.4" font-family="Times-12" font-size="14.00"> &#160;Module</text>
<polygon fill="#80b1d3" stroke="transparent" points="214,-10 214,-30 234,-30 234,-10 214,-10"/>
<text text-anchor="start" x="237.78" y="-15.4" font-family="Times-12" font-size="14.00"> &#160;Bootstrap</text>
<polygon fill="#fdb462" stroke="transparent" points="311,-10 311,-30 331,-30 331,-10 311,-10"/>
<text text-anchor="start" x="334.67" y="-15.4" font-family="Times-12" font-size="14.00"> &#160;Providers</text>
<polygon fill="#fb8072" stroke="transparent" points="407,-10 407,-30 427,-30 427,-10 407,-10"/>
<text text-anchor="start" x="430.73" y="-15.4" font-family="Times-12" font-size="14.00"> &#160;Exports</text>
<g id="clust1" class="cluster">
<title>cluster_AlbumModule</title>
<polygon fill="none" stroke="black" stroke-dasharray="1,5" points="8,-70 8,-268 490,-268 490,-70 8,-70"/>
</g>
<g id="clust4" class="cluster">
<title>cluster_AlbumModule_exports</title>
<polygon fill="none" stroke="black" points="80,-208 80,-260 354,-260 354,-208 80,-208"/>
</g>
<g id="clust6" class="cluster">
<title>cluster_AlbumModule_providers</title>
<polygon fill="none" stroke="black" points="126,-78 126,-130 482,-130 482,-78 126,-78"/>
</g>
<g id="clust3" class="cluster">
<title>cluster_AlbumModule_imports</title>
<polygon fill="none" stroke="black" points="16,-78 16,-130 118,-130 118,-78 16,-78"/>
</g>
<!-- UserModule -->
<g id="node1" class="node">
<title>UserModule</title>
<polygon fill="#8dd3c7" stroke="black" points="109.98,-122 106.98,-126 85.98,-126 82.98,-122 24.02,-122 24.02,-86 109.98,-86 109.98,-122"/>
<text text-anchor="middle" x="67" y="-99.8" font-family="Times,serif" font-size="14.00">UserModule</text>
</g>
<!-- AlbumModule -->
<g id="node2" class="node">
<title>AlbumModule</title>
<polygon fill="#8dd3c7" stroke="black" points="250.44,-187 247.44,-191 226.44,-191 223.44,-187 151.56,-187 151.56,-151 250.44,-151 250.44,-187"/>
<text text-anchor="middle" x="201" y="-164.8" font-family="Times,serif" font-size="14.00">AlbumModule</text>
</g>
<!-- UserModule&#45;&gt;AlbumModule -->
<g id="edge1" class="edge">
<title>UserModule&#45;&gt;AlbumModule</title>
<path fill="none" stroke="black" d="M98.9,-122.11C98.9,-141.34 98.9,-169 98.9,-169 98.9,-169 141.75,-169 141.75,-169"/>
<polygon fill="black" stroke="black" points="141.75,-172.5 151.75,-169 141.75,-165.5 141.75,-172.5"/>
</g>
<!-- AlbumAccessService  -->
<g id="node3" class="node">
<title>AlbumAccessService </title>
<polygon fill="#fb8072" stroke="black" points="346.01,-252 205.99,-252 205.99,-216 346.01,-216 346.01,-252"/>
<text text-anchor="middle" x="276" y="-229.8" font-family="Times,serif" font-size="14.00">AlbumAccessService </text>
</g>
<!-- AlbumModule&#45;&gt;AlbumAccessService  -->
<g id="edge2" class="edge">
<title>AlbumModule&#45;&gt;AlbumAccessService </title>
<path fill="none" stroke="black" stroke-dasharray="5,2" d="M228.11,-187.11C228.11,-187.11 228.11,-205.99 228.11,-205.99"/>
<polygon fill="black" stroke="black" points="224.61,-205.99 228.11,-215.99 231.61,-205.99 224.61,-205.99"/>
</g>
<!-- AlbumService  -->
<g id="node4" class="node">
<title>AlbumService </title>
<polygon fill="#fb8072" stroke="black" points="188.37,-252 87.63,-252 87.63,-216 188.37,-216 188.37,-252"/>
<text text-anchor="middle" x="138" y="-229.8" font-family="Times,serif" font-size="14.00">AlbumService </text>
</g>
<!-- AlbumModule&#45;&gt;AlbumService  -->
<g id="edge3" class="edge">
<title>AlbumModule&#45;&gt;AlbumService </title>
<path fill="none" stroke="black" stroke-dasharray="5,2" d="M169.98,-187.11C169.98,-187.11 169.98,-205.99 169.98,-205.99"/>
<polygon fill="black" stroke="black" points="166.48,-205.99 169.98,-215.99 173.48,-205.99 166.48,-205.99"/>
</g>
<!-- AlbumAccessService -->
<g id="node5" class="node">
<title>AlbumAccessService</title>
<ellipse fill="#fdb462" stroke="black" cx="380" cy="-104" rx="94.32" ry="18"/>
<text text-anchor="middle" x="380" y="-99.8" font-family="Times,serif" font-size="14.00">AlbumAccessService</text>
</g>
<!-- AlbumAccessService&#45;&gt;AlbumModule -->
<g id="edge4" class="edge">
<title>AlbumAccessService&#45;&gt;AlbumModule</title>
<path fill="none" stroke="black" d="M315.92,-117.47C315.92,-136.51 315.92,-169 315.92,-169 315.92,-169 260.4,-169 260.4,-169"/>
<polygon fill="black" stroke="black" points="260.4,-165.5 250.4,-169 260.4,-172.5 260.4,-165.5"/>
</g>
<!-- AlbumService -->
<g id="node6" class="node">
<title>AlbumService</title>
<ellipse fill="#fdb462" stroke="black" cx="201" cy="-104" rx="66.63" ry="18"/>
<text text-anchor="middle" x="201" y="-99.8" font-family="Times,serif" font-size="14.00">AlbumService</text>
</g>
<!-- AlbumService&#45;&gt;AlbumModule -->
<g id="edge5" class="edge">
<title>AlbumService&#45;&gt;AlbumModule</title>
<path fill="none" stroke="black" d="M201,-122.11C201,-122.11 201,-140.99 201,-140.99"/>
<polygon fill="black" stroke="black" points="197.5,-140.99 201,-150.99 204.5,-140.99 197.5,-140.99"/>
</g>
</g>
</svg>
