<?xml version="1.0" encoding="UTF-8" standalone="no"?>
<!DOCTYPE svg PUBLIC "-//W3C//DTD SVG 1.1//EN"
 "http://www.w3.org/Graphics/SVG/1.1/DTD/svg11.dtd">
<!-- Generated by graphviz version 2.47.0 (20210316.0004)
 -->
<!-- Title: dependencies Pages: 1 -->
<svg width="504pt" height="284pt"
 viewBox="0.00 0.00 504.00 284.00" xmlns="http://www.w3.org/2000/svg" xmlns:xlink="http://www.w3.org/1999/xlink">
<g id="graph0" class="graph" transform="scale(1 1) rotate(0) translate(4 280)">
<title>dependencies</title>
<polygon fill="white" stroke="transparent" points="-4,4 -4,-280 500,-280 500,4 -4,4"/>
<text text-anchor="start" x="227.01" y="-42.4" font-family="Times-12" font-weight="bold" font-size="14.00">Legend</text>
<polygon fill="#ffffb3" stroke="transparent" points="14,-10 14,-30 34,-30 34,-10 14,-10"/>
<text text-anchor="start" x="37.63" y="-15.4" font-family="Times-12" font-size="14.00"> &#160;Declarations</text>
<polygon fill="#8dd3c7" stroke="transparent" points="127,-10 127,-30 147,-30 147,-10 127,-10"/>
<text text-anchor="start" x="150.73" y="-15.4" font-family="Times-12" font-size="14.00"> &#160;Module</text>
<polygon fill="#80b1d3" stroke="transparent" points="213,-10 213,-30 233,-30 233,-10 213,-10"/>
<text text-anchor="start" x="236.78" y="-15.4" font-family="Times-12" font-size="14.00"> &#160;Bootstrap</text>
<polygon fill="#fdb462" stroke="transparent" points="310,-10 310,-30 330,-30 330,-10 310,-10"/>
<text text-anchor="start" x="333.67" y="-15.4" font-family="Times-12" font-size="14.00"> &#160;Providers</text>
<polygon fill="#fb8072" stroke="transparent" points="406,-10 406,-30 426,-30 426,-10 406,-10"/>
<text text-anchor="start" x="429.73" y="-15.4" font-family="Times-12" font-size="14.00"> &#160;Exports</text>
<g id="clust1" class="cluster">
<title>cluster_PhotoModule</title>
<polygon fill="none" stroke="black" stroke-dasharray="1,5" points="62,-70 62,-268 434,-268 434,-70 62,-70"/>
</g>
<g id="clust4" class="cluster">
<title>cluster_PhotoModule_exports</title>
<polygon fill="none" stroke="black" points="170,-208 170,-260 280,-260 280,-208 170,-208"/>
</g>
<g id="clust6" class="cluster">
<title>cluster_PhotoModule_providers</title>
<polygon fill="none" stroke="black" points="284,-78 284,-130 426,-130 426,-78 284,-78"/>
</g>
<g id="clust3" class="cluster">
<title>cluster_PhotoModule_imports</title>
<polygon fill="none" stroke="black" points="70,-78 70,-130 276,-130 276,-78 70,-78"/>
</g>
<!-- FilesModule -->
<g id="node1" class="node">
<title>FilesModule</title>
<polygon fill="#8dd3c7" stroke="black" points="268.27,-122 265.27,-126 244.27,-126 241.27,-122 181.73,-122 181.73,-86 268.27,-86 268.27,-122"/>
<text text-anchor="middle" x="225" y="-99.8" font-family="Times,serif" font-size="14.00">FilesModule</text>
</g>
<!-- PhotoModule -->
<g id="node3" class="node">
<title>PhotoModule</title>
<polygon fill="#8dd3c7" stroke="black" points="271.22,-187 268.22,-191 247.22,-191 244.22,-187 178.78,-187 178.78,-151 271.22,-151 271.22,-187"/>
<text text-anchor="middle" x="225" y="-164.8" font-family="Times,serif" font-size="14.00">PhotoModule</text>
</g>
<!-- FilesModule&#45;&gt;PhotoModule -->
<g id="edge1" class="edge">
<title>FilesModule&#45;&gt;PhotoModule</title>
<path fill="none" stroke="black" d="M225,-122.11C225,-122.11 225,-140.99 225,-140.99"/>
<polygon fill="black" stroke="black" points="221.5,-140.99 225,-150.99 228.5,-140.99 221.5,-140.99"/>
</g>
<!-- UserModule -->
<g id="node2" class="node">
<title>UserModule</title>
<polygon fill="#8dd3c7" stroke="black" points="163.98,-122 160.98,-126 139.98,-126 136.98,-122 78.02,-122 78.02,-86 163.98,-86 163.98,-122"/>
<text text-anchor="middle" x="121" y="-99.8" font-family="Times,serif" font-size="14.00">UserModule</text>
</g>
<!-- UserModule&#45;&gt;PhotoModule -->
<g id="edge2" class="edge">
<title>UserModule&#45;&gt;PhotoModule</title>
<path fill="none" stroke="black" d="M121,-122.11C121,-141.34 121,-169 121,-169 121,-169 168.78,-169 168.78,-169"/>
<polygon fill="black" stroke="black" points="168.78,-172.5 178.78,-169 168.78,-165.5 168.78,-172.5"/>
</g>
<!-- PhotoService  -->
<g id="node4" class="node">
<title>PhotoService </title>
<polygon fill="#fb8072" stroke="black" points="272.15,-252 177.85,-252 177.85,-216 272.15,-216 272.15,-252"/>
<text text-anchor="middle" x="225" y="-229.8" font-family="Times,serif" font-size="14.00">PhotoService </text>
</g>
<!-- PhotoModule&#45;&gt;PhotoService  -->
<g id="edge3" class="edge">
<title>PhotoModule&#45;&gt;PhotoService </title>
<path fill="none" stroke="black" stroke-dasharray="5,2" d="M225,-187.11C225,-187.11 225,-205.99 225,-205.99"/>
<polygon fill="black" stroke="black" points="221.5,-205.99 225,-215.99 228.5,-205.99 221.5,-205.99"/>
</g>
<!-- PhotoService -->
<g id="node5" class="node">
<title>PhotoService</title>
<ellipse fill="#fdb462" stroke="black" cx="355" cy="-104" rx="62.56" ry="18"/>
<text text-anchor="middle" x="355" y="-99.8" font-family="Times,serif" font-size="14.00">PhotoService</text>
</g>
<!-- PhotoService&#45;&gt;PhotoModule -->
<g id="edge4" class="edge">
<title>PhotoService&#45;&gt;PhotoModule</title>
<path fill="none" stroke="black" d="M355,-122.11C355,-141.34 355,-169 355,-169 355,-169 281.2,-169 281.2,-169"/>
<polygon fill="black" stroke="black" points="281.2,-165.5 271.2,-169 281.2,-172.5 281.2,-165.5"/>
</g>
</g>
</svg>
