<?xml version="1.0" encoding="UTF-8" standalone="no"?>
<!DOCTYPE svg PUBLIC "-//W3C//DTD SVG 1.1//EN"
 "http://www.w3.org/Graphics/SVG/1.1/DTD/svg11.dtd">
<!-- Generated by graphviz version 2.47.0 (20210316.0004)
 -->
<!-- Title: dependencies Pages: 1 -->
<svg width="3578pt" height="534pt"
 viewBox="0.00 0.00 3578.00 534.00" xmlns="http://www.w3.org/2000/svg" xmlns:xlink="http://www.w3.org/1999/xlink">
<g id="graph0" class="graph" transform="scale(1 1) rotate(0) translate(4 530)">
<title>dependencies</title>
<polygon fill="white" stroke="transparent" points="-4,4 -4,-530 3574,-530 3574,4 -4,4"/>
<text text-anchor="start" x="1764.01" y="-42.4" font-family="Times-12" font-weight="bold" font-size="14.00">Legend</text>
<polygon fill="#ffffb3" stroke="transparent" points="1551,-10 1551,-30 1571,-30 1571,-10 1551,-10"/>
<text text-anchor="start" x="1574.63" y="-15.4" font-family="Times-12" font-size="14.00"> &#160;Declarations</text>
<polygon fill="#8dd3c7" stroke="transparent" points="1664,-10 1664,-30 1684,-30 1684,-10 1664,-10"/>
<text text-anchor="start" x="1687.73" y="-15.4" font-family="Times-12" font-size="14.00"> &#160;Module</text>
<polygon fill="#80b1d3" stroke="transparent" points="1750,-10 1750,-30 1770,-30 1770,-10 1750,-10"/>
<text text-anchor="start" x="1773.78" y="-15.4" font-family="Times-12" font-size="14.00"> &#160;Bootstrap</text>
<polygon fill="#fdb462" stroke="transparent" points="1847,-10 1847,-30 1867,-30 1867,-10 1847,-10"/>
<text text-anchor="start" x="1870.67" y="-15.4" font-family="Times-12" font-size="14.00"> &#160;Providers</text>
<polygon fill="#fb8072" stroke="transparent" points="1943,-10 1943,-30 1963,-30 1963,-10 1943,-10"/>
<text text-anchor="start" x="1966.73" y="-15.4" font-family="Times-12" font-size="14.00"> &#160;Exports</text>
<g id="clust1" class="cluster">
<title>cluster_AdminModule</title>
<polygon fill="none" stroke="black" stroke-dasharray="1,5" points="2958,-298 2958,-434 3562,-434 3562,-298 2958,-298"/>
</g>
<g id="clust6" class="cluster">
<title>cluster_AdminModule_providers</title>
<polygon fill="none" stroke="black" points="2966,-306 2966,-358 3554,-358 3554,-306 2966,-306"/>
</g>
<g id="clust7" class="cluster">
<title>cluster_AlbumModule</title>
<polygon fill="none" stroke="black" stroke-dasharray="1,5" points="2067,-146 2067,-366 2549,-366 2549,-146 2067,-146"/>
</g>
<g id="clust9" class="cluster">
<title>cluster_AlbumModule_imports</title>
<polygon fill="none" stroke="black" points="2075,-154 2075,-206 2177,-206 2177,-154 2075,-154"/>
</g>
<g id="clust10" class="cluster">
<title>cluster_AlbumModule_exports</title>
<polygon fill="none" stroke="black" points="2229,-306 2229,-358 2503,-358 2503,-306 2229,-306"/>
</g>
<g id="clust12" class="cluster">
<title>cluster_AlbumModule_providers</title>
<polygon fill="none" stroke="black" points="2185,-154 2185,-206 2541,-206 2541,-154 2185,-154"/>
</g>
<g id="clust13" class="cluster">
<title>cluster_AppModule</title>
<polygon fill="none" stroke="black" stroke-dasharray="1,5" points="868,-222 868,-510 1427,-510 1427,-222 868,-222"/>
</g>
<g id="clust15" class="cluster">
<title>cluster_AppModule_imports</title>
<polygon fill="none" stroke="black" points="876,-230 876,-434 1419,-434 1419,-230 876,-230"/>
</g>
<g id="clust19" class="cluster">
<title>cluster_AuthModule</title>
<polygon fill="none" stroke="black" stroke-dasharray="1,5" points="2557,-298 2557,-366 2922,-366 2922,-298 2557,-298"/>
</g>
<g id="clust24" class="cluster">
<title>cluster_AuthModule_providers</title>
<polygon fill="none" stroke="black" points="2565,-306 2565,-358 2914,-358 2914,-306 2565,-306"/>
</g>
<g id="clust31" class="cluster">
<title>cluster_FilesModule</title>
<polygon fill="none" stroke="black" stroke-dasharray="1,5" points="598,-298 598,-366 860,-366 860,-298 598,-298"/>
</g>
<g id="clust34" class="cluster">
<title>cluster_FilesModule_exports</title>
<polygon fill="none" stroke="black" points="748,-306 748,-358 852,-358 852,-306 748,-306"/>
</g>
<g id="clust36" class="cluster">
<title>cluster_FilesModule_providers</title>
<polygon fill="none" stroke="black" points="606,-306 606,-358 740,-358 740,-306 606,-306"/>
</g>
<g id="clust37" class="cluster">
<title>cluster_LeadModule</title>
<polygon fill="none" stroke="black" stroke-dasharray="1,5" points="983,-146 983,-214 1133,-214 1133,-146 983,-146"/>
</g>
<g id="clust42" class="cluster">
<title>cluster_LeadModule_providers</title>
<polygon fill="none" stroke="black" points="991,-154 991,-206 1125,-206 1125,-154 991,-154"/>
</g>
<g id="clust43" class="cluster">
<title>cluster_MailModule</title>
<polygon fill="none" stroke="black" stroke-dasharray="1,5" points="8,-298 8,-366 268,-366 268,-298 8,-298"/>
</g>
<g id="clust46" class="cluster">
<title>cluster_MailModule_exports</title>
<polygon fill="none" stroke="black" points="156,-306 156,-358 260,-358 260,-306 156,-306"/>
</g>
<g id="clust48" class="cluster">
<title>cluster_MailModule_providers</title>
<polygon fill="none" stroke="black" points="16,-306 16,-358 148,-358 148,-306 16,-306"/>
</g>
<g id="clust49" class="cluster">
<title>cluster_MercadopagoModule</title>
<polygon fill="none" stroke="black" stroke-dasharray="1,5" points="480,-450 480,-518 860,-518 860,-450 480,-450"/>
</g>
<g id="clust52" class="cluster">
<title>cluster_MercadopagoModule_exports</title>
<polygon fill="none" stroke="black" points="698,-458 698,-510 852,-510 852,-458 698,-458"/>
</g>
<g id="clust54" class="cluster">
<title>cluster_MercadopagoModule_providers</title>
<polygon fill="none" stroke="black" points="488,-458 488,-510 690,-510 690,-458 488,-458"/>
</g>
<g id="clust55" class="cluster">
<title>cluster_OrdersModule</title>
<polygon fill="none" stroke="black" stroke-dasharray="1,5" points="1435,-222 1435,-290 2059,-290 2059,-222 1435,-222"/>
</g>
<g id="clust58" class="cluster">
<title>cluster_OrdersModule_exports</title>
<polygon fill="none" stroke="black" points="1901,-230 1901,-282 2051,-282 2051,-230 1901,-230"/>
</g>
<g id="clust60" class="cluster">
<title>cluster_OrdersModule_providers</title>
<polygon fill="none" stroke="black" points="1443,-230 1443,-282 1893,-282 1893,-230 1443,-230"/>
</g>
<g id="clust61" class="cluster">
<title>cluster_PaymentModule</title>
<polygon fill="none" stroke="black" stroke-dasharray="1,5" points="276,-298 276,-366 590,-366 590,-298 276,-298"/>
</g>
<g id="clust64" class="cluster">
<title>cluster_PaymentModule_exports</title>
<polygon fill="none" stroke="black" points="456,-306 456,-358 582,-358 582,-306 456,-306"/>
</g>
<g id="clust66" class="cluster">
<title>cluster_PaymentModule_providers</title>
<polygon fill="none" stroke="black" points="284,-306 284,-358 448,-358 448,-306 284,-306"/>
</g>
<g id="clust67" class="cluster">
<title>cluster_PhotoModule</title>
<polygon fill="none" stroke="black" stroke-dasharray="1,5" points="210,-374 210,-442 486,-442 486,-374 210,-374"/>
</g>
<g id="clust70" class="cluster">
<title>cluster_PhotoModule_exports</title>
<polygon fill="none" stroke="black" points="368,-382 368,-434 478,-434 478,-382 368,-382"/>
</g>
<g id="clust72" class="cluster">
<title>cluster_PhotoModule_providers</title>
<polygon fill="none" stroke="black" points="218,-382 218,-434 360,-434 360,-382 218,-382"/>
</g>
<g id="clust73" class="cluster">
<title>cluster_SeedModule</title>
<polygon fill="none" stroke="black" stroke-dasharray="1,5" points="825,-146 825,-214 975,-214 975,-146 825,-146"/>
</g>
<g id="clust78" class="cluster">
<title>cluster_SeedModule_providers</title>
<polygon fill="none" stroke="black" points="833,-154 833,-206 967,-206 967,-154 833,-154"/>
</g>
<g id="clust79" class="cluster">
<title>cluster_SubscriptionModule</title>
<polygon fill="none" stroke="black" stroke-dasharray="1,5" points="494,-374 494,-442 860,-442 860,-374 494,-374"/>
</g>
<g id="clust82" class="cluster">
<title>cluster_SubscriptionModule_exports</title>
<polygon fill="none" stroke="black" points="704,-382 704,-434 852,-434 852,-382 704,-382"/>
</g>
<g id="clust84" class="cluster">
<title>cluster_SubscriptionModule_providers</title>
<polygon fill="none" stroke="black" points="502,-382 502,-434 696,-434 696,-382 502,-382"/>
</g>
<g id="clust85" class="cluster">
<title>cluster_UserModule</title>
<polygon fill="none" stroke="black" stroke-dasharray="1,5" points="1989,-70 1989,-138 2249,-138 2249,-70 1989,-70"/>
</g>
<g id="clust88" class="cluster">
<title>cluster_UserModule_exports</title>
<polygon fill="none" stroke="black" points="2137,-78 2137,-130 2241,-130 2241,-78 2137,-78"/>
</g>
<g id="clust90" class="cluster">
<title>cluster_UserModule_providers</title>
<polygon fill="none" stroke="black" points="1997,-78 1997,-130 2129,-130 2129,-78 1997,-78"/>
</g>
<!-- AdminAlbumService -->
<g id="node1" class="node">
<title>AdminAlbumService</title>
<ellipse fill="#fdb462" stroke="black" cx="3452" cy="-332" rx="93.78" ry="18"/>
<text text-anchor="middle" x="3452" y="-327.8" font-family="Times,serif" font-size="14.00">AdminAlbumService</text>
</g>
<!-- AdminModule -->
<g id="node4" class="node">
<title>AdminModule</title>
<polygon fill="#8dd3c7" stroke="black" points="3204.44,-426 3201.44,-430 3180.44,-430 3177.44,-426 3105.56,-426 3105.56,-390 3204.44,-390 3204.44,-426"/>
<text text-anchor="middle" x="3155" y="-403.8" font-family="Times,serif" font-size="14.00">AdminModule</text>
</g>
<!-- AdminAlbumService&#45;&gt;AdminModule -->
<g id="edge1" class="edge">
<title>AdminAlbumService&#45;&gt;AdminModule</title>
<path fill="none" stroke="black" d="M3452,-350.01C3452,-372.49 3452,-408 3452,-408 3452,-408 3214.38,-408 3214.38,-408"/>
<polygon fill="black" stroke="black" points="3214.38,-404.5 3204.38,-408 3214.38,-411.5 3214.38,-404.5"/>
</g>
<!-- AdminOrderService -->
<g id="node2" class="node">
<title>AdminOrderService</title>
<ellipse fill="#fdb462" stroke="black" cx="3251" cy="-332" rx="89.16" ry="18"/>
<text text-anchor="middle" x="3251" y="-327.8" font-family="Times,serif" font-size="14.00">AdminOrderService</text>
</g>
<!-- AdminOrderService&#45;&gt;AdminModule -->
<g id="edge2" class="edge">
<title>AdminOrderService&#45;&gt;AdminModule</title>
<path fill="none" stroke="black" d="M3182.94,-343.88C3182.94,-343.88 3182.94,-379.99 3182.94,-379.99"/>
<polygon fill="black" stroke="black" points="3179.44,-379.99 3182.94,-389.99 3186.44,-379.99 3179.44,-379.99"/>
</g>
<!-- AdminUserService -->
<g id="node3" class="node">
<title>AdminUserService</title>
<ellipse fill="#fdb462" stroke="black" cx="3059" cy="-332" rx="85.09" ry="18"/>
<text text-anchor="middle" x="3059" y="-327.8" font-family="Times,serif" font-size="14.00">AdminUserService</text>
</g>
<!-- AdminUserService&#45;&gt;AdminModule -->
<g id="edge3" class="edge">
<title>AdminUserService&#45;&gt;AdminModule</title>
<path fill="none" stroke="black" d="M3124.91,-343.54C3124.91,-343.54 3124.91,-379.83 3124.91,-379.83"/>
<polygon fill="black" stroke="black" points="3121.41,-379.83 3124.91,-389.83 3128.41,-379.83 3121.41,-379.83"/>
</g>
<!-- AppModule -->
<g id="node21" class="node">
<title>AppModule</title>
<polygon fill="#8dd3c7" stroke="black" points="1092.66,-502 1089.66,-506 1068.66,-506 1065.66,-502 1009.34,-502 1009.34,-466 1092.66,-466 1092.66,-502"/>
<text text-anchor="middle" x="1051" y="-479.8" font-family="Times,serif" font-size="14.00">AppModule</text>
</g>
<!-- AdminModule&#45;&gt;AppModule -->
<g id="edge9" class="edge">
<title>AdminModule&#45;&gt;AppModule</title>
<path fill="none" stroke="black" d="M3155,-426.01C3155,-452.02 3155,-497 3155,-497 3155,-497 1103.03,-497 1103.03,-497"/>
<polygon fill="black" stroke="black" points="1103.03,-493.5 1093.03,-497 1103.03,-500.5 1103.03,-493.5"/>
</g>
<!-- UserModule -->
<g id="node5" class="node">
<title>UserModule</title>
<polygon fill="#8dd3c7" stroke="black" points="2168.98,-198 2165.98,-202 2144.98,-202 2141.98,-198 2083.02,-198 2083.02,-162 2168.98,-162 2168.98,-198"/>
<text text-anchor="middle" x="2126" y="-175.8" font-family="Times,serif" font-size="14.00">UserModule</text>
</g>
<!-- AlbumModule -->
<g id="node6" class="node">
<title>AlbumModule</title>
<polygon fill="#8dd3c7" stroke="black" points="2374.44,-274 2371.44,-278 2350.44,-278 2347.44,-274 2275.56,-274 2275.56,-238 2374.44,-238 2374.44,-274"/>
<text text-anchor="middle" x="2325" y="-251.8" font-family="Times,serif" font-size="14.00">AlbumModule</text>
</g>
<!-- UserModule&#45;&gt;AlbumModule -->
<g id="edge4" class="edge">
<title>UserModule&#45;&gt;AlbumModule</title>
<path fill="none" stroke="black" d="M2156.71,-198.03C2156.71,-218.77 2156.71,-250 2156.71,-250 2156.71,-250 2265.42,-250 2265.42,-250"/>
<polygon fill="black" stroke="black" points="2265.42,-253.5 2275.42,-250 2265.42,-246.5 2265.42,-253.5"/>
</g>
<!-- AuthModule -->
<g id="node11" class="node">
<title>AuthModule</title>
<polygon fill="#8dd3c7" stroke="black" points="1410.55,-426 1407.55,-430 1386.55,-430 1383.55,-426 1323.45,-426 1323.45,-390 1410.55,-390 1410.55,-426"/>
<text text-anchor="middle" x="1367" y="-403.8" font-family="Times,serif" font-size="14.00">AuthModule</text>
</g>
<!-- UserModule&#45;&gt;AuthModule -->
<g id="edge24" class="edge">
<title>UserModule&#45;&gt;AuthModule</title>
<path fill="none" stroke="black" d="M2132.14,-198.3C2132.14,-250.93 2132.14,-399 2132.14,-399 2132.14,-399 1420.61,-399 1420.61,-399"/>
<polygon fill="black" stroke="black" points="1420.61,-395.5 1410.61,-399 1420.61,-402.5 1420.61,-395.5"/>
</g>
<!-- FilesModule -->
<g id="node12" class="node">
<title>FilesModule</title>
<polygon fill="#8dd3c7" stroke="black" points="1307.27,-274 1304.27,-278 1283.27,-278 1280.27,-274 1220.73,-274 1220.73,-238 1307.27,-238 1307.27,-274"/>
<text text-anchor="middle" x="1264" y="-251.8" font-family="Times,serif" font-size="14.00">FilesModule</text>
</g>
<!-- UserModule&#45;&gt;FilesModule -->
<g id="edge27" class="edge">
<title>UserModule&#45;&gt;FilesModule</title>
<path fill="none" stroke="black" d="M2082.96,-186C1908.59,-186 1264,-186 1264,-186 1264,-186 1264,-227.97 1264,-227.97"/>
<polygon fill="black" stroke="black" points="1260.5,-227.97 1264,-237.97 1267.5,-227.97 1260.5,-227.97"/>
</g>
<!-- PaymentModule -->
<g id="node17" class="node">
<title>PaymentModule</title>
<polygon fill="#8dd3c7" stroke="black" points="1202.04,-274 1199.04,-278 1178.04,-278 1175.04,-274 1093.96,-274 1093.96,-238 1202.04,-238 1202.04,-274"/>
<text text-anchor="middle" x="1148" y="-251.8" font-family="Times,serif" font-size="14.00">PaymentModule</text>
</g>
<!-- UserModule&#45;&gt;PaymentModule -->
<g id="edge42" class="edge">
<title>UserModule&#45;&gt;PaymentModule</title>
<path fill="none" stroke="black" d="M2082.92,-174C1895.42,-174 1159.78,-174 1159.78,-174 1159.78,-174 1159.78,-227.8 1159.78,-227.8"/>
<polygon fill="black" stroke="black" points="1156.28,-227.8 1159.78,-237.8 1163.28,-227.8 1156.28,-227.8"/>
</g>
<!-- PhotoModule -->
<g id="node18" class="node">
<title>PhotoModule</title>
<polygon fill="#8dd3c7" stroke="black" points="1127.22,-350 1124.22,-354 1103.22,-354 1100.22,-350 1034.78,-350 1034.78,-314 1127.22,-314 1127.22,-350"/>
<text text-anchor="middle" x="1081" y="-327.8" font-family="Times,serif" font-size="14.00">PhotoModule</text>
</g>
<!-- UserModule&#45;&gt;PhotoModule -->
<g id="edge46" class="edge">
<title>UserModule&#45;&gt;PhotoModule</title>
<path fill="none" stroke="black" d="M2107.58,-198.23C2107.58,-231.8 2107.58,-300 2107.58,-300 2107.58,-300 1120.43,-300 1120.43,-300 1120.43,-300 1120.43,-303.76 1120.43,-303.76"/>
<polygon fill="black" stroke="black" points="1116.94,-303.76 1120.43,-313.76 1123.94,-303.76 1116.94,-303.76"/>
</g>
<!-- SeedModule -->
<g id="node19" class="node">
<title>SeedModule</title>
<polygon fill="#8dd3c7" stroke="black" points="970.26,-274 967.26,-278 946.26,-278 943.26,-274 883.74,-274 883.74,-238 970.26,-238 970.26,-274"/>
<text text-anchor="middle" x="927" y="-251.8" font-family="Times,serif" font-size="14.00">SeedModule</text>
</g>
<!-- UserModule&#45;&gt;SeedModule -->
<g id="edge49" class="edge">
<title>UserModule&#45;&gt;SeedModule</title>
<path fill="none" stroke="black" d="M2095.29,-198.11C2095.29,-207.9 2095.29,-218 2095.29,-218 2095.29,-218 964.57,-218 964.57,-218 964.57,-218 964.57,-227.89 964.57,-227.89"/>
<polygon fill="black" stroke="black" points="961.07,-227.89 964.57,-237.89 968.07,-227.89 961.07,-227.89"/>
</g>
<!-- SubscriptionModule -->
<g id="node20" class="node">
<title>SubscriptionModule</title>
<polygon fill="#8dd3c7" stroke="black" points="1391.32,-350 1388.32,-354 1367.32,-354 1364.32,-350 1260.68,-350 1260.68,-314 1391.32,-314 1391.32,-350"/>
<text text-anchor="middle" x="1326" y="-327.8" font-family="Times,serif" font-size="14.00">SubscriptionModule</text>
</g>
<!-- UserModule&#45;&gt;SubscriptionModule -->
<g id="edge52" class="edge">
<title>UserModule&#45;&gt;SubscriptionModule</title>
<path fill="none" stroke="black" d="M2119.86,-198.03C2119.86,-238.3 2119.86,-332 2119.86,-332 2119.86,-332 1401.3,-332 1401.3,-332"/>
<polygon fill="black" stroke="black" points="1401.3,-328.5 1391.3,-332 1401.3,-335.5 1401.3,-328.5"/>
</g>
<!-- UserModule&#45;&gt;AppModule -->
<g id="edge21" class="edge">
<title>UserModule&#45;&gt;AppModule</title>
<path fill="none" stroke="black" d="M2144.42,-198.28C2144.42,-264.38 2144.42,-487 2144.42,-487 2144.42,-487 1102.86,-487 1102.86,-487"/>
<polygon fill="black" stroke="black" points="1102.86,-483.5 1092.86,-487 1102.86,-490.5 1102.86,-483.5"/>
</g>
<!-- UserService  -->
<g id="node41" class="node">
<title>UserService </title>
<polygon fill="#fb8072" stroke="black" points="2232.9,-122 2145.1,-122 2145.1,-86 2232.9,-86 2232.9,-122"/>
<text text-anchor="middle" x="2189" y="-99.8" font-family="Times,serif" font-size="14.00">UserService </text>
</g>
<!-- UserModule&#45;&gt;UserService  -->
<g id="edge55" class="edge">
<title>UserModule&#45;&gt;UserService </title>
<path fill="none" stroke="black" stroke-dasharray="5,2" d="M2157.02,-161.99C2157.02,-161.99 2157.02,-132.15 2157.02,-132.15"/>
<polygon fill="black" stroke="black" points="2160.52,-132.15 2157.02,-122.15 2153.52,-132.15 2160.52,-132.15"/>
</g>
<!-- AlbumAccessService  -->
<g id="node7" class="node">
<title>AlbumAccessService </title>
<polygon fill="#fb8072" stroke="black" points="2377.01,-350 2236.99,-350 2236.99,-314 2377.01,-314 2377.01,-350"/>
<text text-anchor="middle" x="2307" y="-327.8" font-family="Times,serif" font-size="14.00">AlbumAccessService </text>
</g>
<!-- AlbumModule&#45;&gt;AlbumAccessService  -->
<g id="edge5" class="edge">
<title>AlbumModule&#45;&gt;AlbumAccessService </title>
<path fill="none" stroke="black" stroke-dasharray="5,2" d="M2325,-274.01C2325,-274.01 2325,-303.85 2325,-303.85"/>
<polygon fill="black" stroke="black" points="2321.5,-303.85 2325,-313.85 2328.5,-303.85 2321.5,-303.85"/>
</g>
<!-- AlbumService  -->
<g id="node8" class="node">
<title>AlbumService </title>
<polygon fill="#fb8072" stroke="black" points="2495.37,-350 2394.63,-350 2394.63,-314 2495.37,-314 2495.37,-350"/>
<text text-anchor="middle" x="2445" y="-327.8" font-family="Times,serif" font-size="14.00">AlbumService </text>
</g>
<!-- AlbumModule&#45;&gt;AlbumService  -->
<g id="edge6" class="edge">
<title>AlbumModule&#45;&gt;AlbumService </title>
<path fill="none" stroke="black" stroke-dasharray="5,2" d="M2374.5,-262C2414.15,-262 2463.18,-262 2463.18,-262 2463.18,-262 2463.18,-303.97 2463.18,-303.97"/>
<polygon fill="black" stroke="black" points="2459.68,-303.97 2463.18,-313.97 2466.68,-303.97 2459.68,-303.97"/>
</g>
<!-- AlbumModule&#45;&gt;AppModule -->
<g id="edge10" class="edge">
<title>AlbumModule&#45;&gt;AppModule</title>
<path fill="none" stroke="black" d="M2275.41,-262C2233.74,-262 2180.91,-262 2180.91,-262 2180.91,-262 2180.91,-492 2180.91,-492 2180.91,-492 1102.89,-492 1102.89,-492"/>
<polygon fill="black" stroke="black" points="1102.89,-488.5 1092.89,-492 1102.89,-495.5 1102.89,-488.5"/>
</g>
<!-- AlbumAccessService -->
<g id="node9" class="node">
<title>AlbumAccessService</title>
<ellipse fill="#fdb462" stroke="black" cx="2287" cy="-180" rx="94.32" ry="18"/>
<text text-anchor="middle" x="2287" y="-175.8" font-family="Times,serif" font-size="14.00">AlbumAccessService</text>
</g>
<!-- AlbumAccessService&#45;&gt;AlbumModule -->
<g id="edge7" class="edge">
<title>AlbumAccessService&#45;&gt;AlbumModule</title>
<path fill="none" stroke="black" d="M2325,-196.49C2325,-196.49 2325,-227.95 2325,-227.95"/>
<polygon fill="black" stroke="black" points="2321.5,-227.95 2325,-237.95 2328.5,-227.95 2321.5,-227.95"/>
</g>
<!-- AlbumService -->
<g id="node10" class="node">
<title>AlbumService</title>
<ellipse fill="#fdb462" stroke="black" cx="2466" cy="-180" rx="66.63" ry="18"/>
<text text-anchor="middle" x="2466" y="-175.8" font-family="Times,serif" font-size="14.00">AlbumService</text>
</g>
<!-- AlbumService&#45;&gt;AlbumModule -->
<g id="edge8" class="edge">
<title>AlbumService&#45;&gt;AlbumModule</title>
<path fill="none" stroke="black" d="M2431.18,-195.54C2431.18,-216.16 2431.18,-250 2431.18,-250 2431.18,-250 2384.36,-250 2384.36,-250"/>
<polygon fill="black" stroke="black" points="2384.36,-246.5 2374.36,-250 2384.36,-253.5 2384.36,-246.5"/>
</g>
<!-- AuthModule&#45;&gt;AppModule -->
<g id="edge11" class="edge">
<title>AuthModule&#45;&gt;AppModule</title>
<path fill="none" stroke="black" d="M1367,-426.29C1367,-448.21 1367,-482 1367,-482 1367,-482 1102.96,-482 1102.96,-482"/>
<polygon fill="black" stroke="black" points="1102.96,-478.5 1092.96,-482 1102.96,-485.5 1102.96,-478.5"/>
</g>
<!-- FilesModule&#45;&gt;PhotoModule -->
<g id="edge45" class="edge">
<title>FilesModule&#45;&gt;PhotoModule</title>
<path fill="none" stroke="black" d="M1228.94,-274.1C1228.94,-285.09 1228.94,-297 1228.94,-297 1228.94,-297 1113.76,-297 1113.76,-297 1113.76,-297 1113.76,-303.68 1113.76,-303.68"/>
<polygon fill="black" stroke="black" points="1110.26,-303.68 1113.76,-313.68 1117.26,-303.68 1110.26,-303.68"/>
</g>
<!-- FilesModule&#45;&gt;AppModule -->
<g id="edge12" class="edge">
<title>FilesModule&#45;&gt;AppModule</title>
<path fill="none" stroke="black" d="M1253.55,-274.04C1253.55,-325.96 1253.55,-472 1253.55,-472 1253.55,-472 1102.97,-472 1102.97,-472"/>
<polygon fill="black" stroke="black" points="1102.97,-468.5 1092.97,-472 1102.97,-475.5 1102.97,-468.5"/>
</g>
<!-- FilesService  -->
<g id="node24" class="node">
<title>FilesService </title>
<polygon fill="#fb8072" stroke="black" points="844.2,-350 755.8,-350 755.8,-314 844.2,-314 844.2,-350"/>
<text text-anchor="middle" x="800" y="-327.8" font-family="Times,serif" font-size="14.00">FilesService </text>
</g>
<!-- FilesModule&#45;&gt;FilesService  -->
<g id="edge28" class="edge">
<title>FilesModule&#45;&gt;FilesService </title>
<path fill="none" stroke="black" stroke-dasharray="5,2" d="M1226.16,-274.42C1226.16,-283.28 1226.16,-292 1226.16,-292 1226.16,-292 798.44,-292 798.44,-292 798.44,-292 798.44,-303.87 798.44,-303.87"/>
<polygon fill="black" stroke="black" points="794.94,-303.87 798.44,-313.87 801.94,-303.87 794.94,-303.87"/>
</g>
<!-- LeadModule -->
<g id="node13" class="node">
<title>LeadModule</title>
<polygon fill="#8dd3c7" stroke="black" points="1075.53,-274 1072.53,-278 1051.53,-278 1048.53,-274 988.47,-274 988.47,-238 1075.53,-238 1075.53,-274"/>
<text text-anchor="middle" x="1032" y="-251.8" font-family="Times,serif" font-size="14.00">LeadModule</text>
</g>
<!-- LeadModule&#45;&gt;AppModule -->
<g id="edge13" class="edge">
<title>LeadModule&#45;&gt;AppModule</title>
<path fill="none" stroke="black" d="M1017.74,-274.27C1017.74,-274.27 1017.74,-455.96 1017.74,-455.96"/>
<polygon fill="black" stroke="black" points="1014.24,-455.96 1017.74,-465.96 1021.24,-455.96 1014.24,-455.96"/>
</g>
<!-- MailModule -->
<g id="node14" class="node">
<title>MailModule</title>
<polygon fill="#8dd3c7" stroke="black" points="1410.99,-274 1407.99,-278 1386.99,-278 1383.99,-274 1325.01,-274 1325.01,-238 1410.99,-238 1410.99,-274"/>
<text text-anchor="middle" x="1368" y="-251.8" font-family="Times,serif" font-size="14.00">MailModule</text>
</g>
<!-- MailModule&#45;&gt;AuthModule -->
<g id="edge22" class="edge">
<title>MailModule&#45;&gt;AuthModule</title>
<path fill="none" stroke="black" d="M1400.97,-274.03C1400.97,-274.03 1400.97,-379.99 1400.97,-379.99"/>
<polygon fill="black" stroke="black" points="1397.47,-379.99 1400.97,-389.99 1404.47,-379.99 1397.47,-379.99"/>
</g>
<!-- OrdersModule -->
<g id="node16" class="node">
<title>OrdersModule</title>
<polygon fill="#8dd3c7" stroke="black" points="1242.64,-350 1239.64,-354 1218.64,-354 1215.64,-350 1145.36,-350 1145.36,-314 1242.64,-314 1242.64,-350"/>
<text text-anchor="middle" x="1194" y="-327.8" font-family="Times,serif" font-size="14.00">OrdersModule</text>
</g>
<!-- MailModule&#45;&gt;OrdersModule -->
<g id="edge37" class="edge">
<title>MailModule&#45;&gt;OrdersModule</title>
<path fill="none" stroke="black" d="M1369.11,-274.04C1369.11,-287.29 1369.11,-303 1369.11,-303 1369.11,-303 1234.49,-303 1234.49,-303 1234.49,-303 1234.49,-304.08 1234.49,-304.08"/>
<polygon fill="black" stroke="black" points="1230.99,-303.8 1234.49,-313.8 1237.99,-303.8 1230.99,-303.8"/>
</g>
<!-- MailModule&#45;&gt;SubscriptionModule -->
<g id="edge51" class="edge">
<title>MailModule&#45;&gt;SubscriptionModule</title>
<path fill="none" stroke="black" d="M1380.14,-274.01C1380.14,-274.01 1380.14,-303.85 1380.14,-303.85"/>
<polygon fill="black" stroke="black" points="1376.64,-303.85 1380.14,-313.85 1383.64,-303.85 1376.64,-303.85"/>
</g>
<!-- MailModule&#45;&gt;AppModule -->
<g id="edge14" class="edge">
<title>MailModule&#45;&gt;AppModule</title>
<path fill="none" stroke="black" d="M1358.08,-274.11C1358.08,-283.9 1358.08,-294 1358.08,-294 1358.08,-294 1026.32,-294 1026.32,-294 1026.32,-294 1026.32,-455.78 1026.32,-455.78"/>
<polygon fill="black" stroke="black" points="1022.82,-455.78 1026.32,-465.78 1029.82,-455.78 1022.82,-455.78"/>
</g>
<!-- MailService  -->
<g id="node27" class="node">
<title>MailService </title>
<polygon fill="#fb8072" stroke="black" points="251.92,-350 164.08,-350 164.08,-314 251.92,-314 251.92,-350"/>
<text text-anchor="middle" x="208" y="-327.8" font-family="Times,serif" font-size="14.00">MailService </text>
</g>
<!-- MailModule&#45;&gt;MailService  -->
<g id="edge31" class="edge">
<title>MailModule&#45;&gt;MailService </title>
<path fill="none" stroke="black" stroke-dasharray="5,2" d="M1347.06,-274.19C1347.06,-277.54 1347.06,-280 1347.06,-280 1347.06,-280 208,-280 208,-280 208,-280 208,-303.81 208,-303.81"/>
<polygon fill="black" stroke="black" points="204.5,-303.81 208,-313.81 211.5,-303.81 204.5,-303.81"/>
</g>
<!-- MercadopagoModule -->
<g id="node15" class="node">
<title>MercadopagoModule</title>
<polygon fill="#8dd3c7" stroke="black" points="1246.01,-426 1243.01,-430 1222.01,-430 1219.01,-426 1109.99,-426 1109.99,-390 1246.01,-390 1246.01,-426"/>
<text text-anchor="middle" x="1178" y="-403.8" font-family="Times,serif" font-size="14.00">MercadopagoModule</text>
</g>
<!-- MercadopagoModule&#45;&gt;AppModule -->
<g id="edge15" class="edge">
<title>MercadopagoModule&#45;&gt;AppModule</title>
<path fill="none" stroke="black" d="M1109.59,-414C1095.34,-414 1084.55,-414 1084.55,-414 1084.55,-414 1084.55,-455.97 1084.55,-455.97"/>
<polygon fill="black" stroke="black" points="1081.05,-455.97 1084.55,-465.97 1088.05,-455.97 1081.05,-455.97"/>
</g>
<!-- MercadopagoService  -->
<g id="node29" class="node">
<title>MercadopagoService </title>
<polygon fill="#fb8072" stroke="black" points="844.44,-502 705.56,-502 705.56,-466 844.44,-466 844.44,-502"/>
<text text-anchor="middle" x="775" y="-479.8" font-family="Times,serif" font-size="14.00">MercadopagoService </text>
</g>
<!-- MercadopagoModule&#45;&gt;MercadopagoService  -->
<g id="edge35" class="edge">
<title>MercadopagoModule&#45;&gt;MercadopagoService </title>
<path fill="none" stroke="black" stroke-dasharray="5,2" d="M1109.9,-402C1052.38,-402 979.31,-402 979.31,-402 979.31,-402 979.31,-478 979.31,-478 979.31,-478 854.45,-478 854.45,-478"/>
<polygon fill="black" stroke="black" points="854.45,-474.5 844.45,-478 854.45,-481.5 854.45,-474.5"/>
</g>
<!-- OrdersModule&#45;&gt;MercadopagoModule -->
<g id="edge33" class="edge">
<title>OrdersModule&#45;&gt;MercadopagoModule</title>
<path fill="none" stroke="black" d="M1210.27,-350.01C1210.27,-350.01 1210.27,-379.85 1210.27,-379.85"/>
<polygon fill="black" stroke="black" points="1206.77,-379.85 1210.27,-389.85 1213.77,-379.85 1206.77,-379.85"/>
</g>
<!-- OrdersModule&#45;&gt;AppModule -->
<g id="edge16" class="edge">
<title>OrdersModule&#45;&gt;AppModule</title>
<path fill="none" stroke="black" d="M1177.73,-350.24C1177.73,-365.57 1177.73,-385 1177.73,-385 1177.73,-385 1076.27,-385 1076.27,-385 1076.27,-385 1076.27,-455.84 1076.27,-455.84"/>
<polygon fill="black" stroke="black" points="1072.77,-455.84 1076.27,-465.84 1079.77,-455.84 1072.77,-455.84"/>
</g>
<!-- BuyerOrdersService  -->
<g id="node31" class="node">
<title>BuyerOrdersService </title>
<polygon fill="#fb8072" stroke="black" points="2042.78,-274 1909.22,-274 1909.22,-238 2042.78,-238 2042.78,-274"/>
<text text-anchor="middle" x="1976" y="-251.8" font-family="Times,serif" font-size="14.00">BuyerOrdersService </text>
</g>
<!-- OrdersModule&#45;&gt;BuyerOrdersService  -->
<g id="edge39" class="edge">
<title>OrdersModule&#45;&gt;BuyerOrdersService </title>
<path fill="none" stroke="black" stroke-dasharray="5,2" d="M1231.72,-313.85C1231.72,-312.7 1231.72,-312 1231.72,-312 1231.72,-312 1976,-312 1976,-312 1976,-312 1976,-284.03 1976,-284.03"/>
<polygon fill="black" stroke="black" points="1979.5,-284.03 1976,-274.03 1972.5,-284.03 1979.5,-284.03"/>
</g>
<!-- PaymentModule&#45;&gt;OrdersModule -->
<g id="edge38" class="edge">
<title>PaymentModule&#45;&gt;OrdersModule</title>
<path fill="none" stroke="black" d="M1173.73,-274.01C1173.73,-274.01 1173.73,-303.85 1173.73,-303.85"/>
<polygon fill="black" stroke="black" points="1170.23,-303.85 1173.73,-313.85 1177.23,-303.85 1170.23,-303.85"/>
</g>
<!-- PaymentModule&#45;&gt;AppModule -->
<g id="edge17" class="edge">
<title>PaymentModule&#45;&gt;AppModule</title>
<path fill="none" stroke="black" d="M1136.15,-274.15C1136.15,-308.36 1136.15,-379 1136.15,-379 1136.15,-379 1068,-379 1068,-379 1068,-379 1068,-455.71 1068,-455.71"/>
<polygon fill="black" stroke="black" points="1064.5,-455.71 1068,-465.71 1071.5,-455.71 1064.5,-455.71"/>
</g>
<!-- PaymentService  -->
<g id="node34" class="node">
<title>PaymentService </title>
<polygon fill="#fb8072" stroke="black" points="574.47,-350 463.53,-350 463.53,-314 574.47,-314 574.47,-350"/>
<text text-anchor="middle" x="519" y="-327.8" font-family="Times,serif" font-size="14.00">PaymentService </text>
</g>
<!-- PaymentModule&#45;&gt;PaymentService  -->
<g id="edge43" class="edge">
<title>PaymentModule&#45;&gt;PaymentService </title>
<path fill="none" stroke="black" stroke-dasharray="5,2" d="M1107.08,-274.14C1107.08,-280.46 1107.08,-286 1107.08,-286 1107.08,-286 519,-286 519,-286 519,-286 519,-303.82 519,-303.82"/>
<polygon fill="black" stroke="black" points="515.5,-303.82 519,-313.82 522.5,-303.82 515.5,-303.82"/>
</g>
<!-- PhotoModule&#45;&gt;AppModule -->
<g id="edge18" class="edge">
<title>PhotoModule&#45;&gt;AppModule</title>
<path fill="none" stroke="black" d="M1059.72,-350.03C1059.72,-350.03 1059.72,-455.99 1059.72,-455.99"/>
<polygon fill="black" stroke="black" points="1056.22,-455.99 1059.72,-465.99 1063.22,-455.99 1056.22,-455.99"/>
</g>
<!-- PhotoService  -->
<g id="node36" class="node">
<title>PhotoService </title>
<polygon fill="#fb8072" stroke="black" points="470.15,-426 375.85,-426 375.85,-390 470.15,-390 470.15,-426"/>
<text text-anchor="middle" x="423" y="-403.8" font-family="Times,serif" font-size="14.00">PhotoService </text>
</g>
<!-- PhotoModule&#45;&gt;PhotoService  -->
<g id="edge47" class="edge">
<title>PhotoModule&#45;&gt;PhotoService </title>
<path fill="none" stroke="black" stroke-dasharray="5,2" d="M1051.44,-350.14C1051.44,-356.46 1051.44,-362 1051.44,-362 1051.44,-362 451.78,-362 451.78,-362 451.78,-362 451.78,-379.82 451.78,-379.82"/>
<polygon fill="black" stroke="black" points="448.28,-379.82 451.78,-389.82 455.28,-379.82 448.28,-379.82"/>
</g>
<!-- SeedModule&#45;&gt;AppModule -->
<g id="edge19" class="edge">
<title>SeedModule&#45;&gt;AppModule</title>
<path fill="none" stroke="black" d="M927,-274.36C927,-329.52 927,-490 927,-490 927,-490 999.02,-490 999.02,-490"/>
<polygon fill="black" stroke="black" points="999.02,-493.5 1009.02,-490 999.02,-486.5 999.02,-493.5"/>
</g>
<!-- SubscriptionModule&#45;&gt;AuthModule -->
<g id="edge23" class="edge">
<title>SubscriptionModule&#45;&gt;AuthModule</title>
<path fill="none" stroke="black" d="M1357.19,-350.01C1357.19,-350.01 1357.19,-379.85 1357.19,-379.85"/>
<polygon fill="black" stroke="black" points="1353.69,-379.85 1357.19,-389.85 1360.69,-379.85 1353.69,-379.85"/>
</g>
<!-- SubscriptionModule&#45;&gt;MercadopagoModule -->
<g id="edge34" class="edge">
<title>SubscriptionModule&#45;&gt;MercadopagoModule</title>
<path fill="none" stroke="black" d="M1298.27,-350.01C1298.27,-372.49 1298.27,-408 1298.27,-408 1298.27,-408 1256.22,-408 1256.22,-408"/>
<polygon fill="black" stroke="black" points="1256.22,-404.5 1246.22,-408 1256.22,-411.5 1256.22,-404.5"/>
</g>
<!-- SubscriptionModule&#45;&gt;AppModule -->
<g id="edge20" class="edge">
<title>SubscriptionModule&#45;&gt;AppModule</title>
<path fill="none" stroke="black" d="M1310.75,-350.07C1310.75,-388.94 1310.75,-477 1310.75,-477 1310.75,-477 1102.73,-477 1102.73,-477"/>
<polygon fill="black" stroke="black" points="1102.73,-473.5 1092.73,-477 1102.73,-480.5 1102.73,-473.5"/>
</g>
<!-- SubscriptionService  -->
<g id="node39" class="node">
<title>SubscriptionService </title>
<polygon fill="#fb8072" stroke="black" points="844.25,-426 711.75,-426 711.75,-390 844.25,-390 844.25,-426"/>
<text text-anchor="middle" x="778" y="-403.8" font-family="Times,serif" font-size="14.00">SubscriptionService </text>
</g>
<!-- SubscriptionModule&#45;&gt;SubscriptionService  -->
<g id="edge53" class="edge">
<title>SubscriptionModule&#45;&gt;SubscriptionService </title>
<path fill="none" stroke="black" stroke-dasharray="5,2" d="M1285.79,-350.1C1285.79,-361.09 1285.79,-373 1285.79,-373 1285.79,-373 799.89,-373 799.89,-373 799.89,-373 799.89,-379.68 799.89,-379.68"/>
<polygon fill="black" stroke="black" points="796.39,-379.68 799.89,-389.68 803.39,-379.68 796.39,-379.68"/>
</g>
<!-- AuthService -->
<g id="node22" class="node">
<title>AuthService</title>
<ellipse fill="#fdb462" stroke="black" cx="2632" cy="-332" rx="59.11" ry="18"/>
<text text-anchor="middle" x="2632" y="-327.8" font-family="Times,serif" font-size="14.00">AuthService</text>
</g>
<!-- AuthService&#45;&gt;AuthModule -->
<g id="edge25" class="edge">
<title>AuthService&#45;&gt;AuthModule</title>
<path fill="none" stroke="black" d="M2632,-350.01C2632,-372.49 2632,-408 2632,-408 2632,-408 1420.91,-408 1420.91,-408"/>
<polygon fill="black" stroke="black" points="1420.91,-404.5 1410.91,-408 1420.91,-411.5 1420.91,-404.5"/>
</g>
<!-- PasswordResetService -->
<g id="node23" class="node">
<title>PasswordResetService</title>
<ellipse fill="#fdb462" stroke="black" cx="2808" cy="-332" rx="98.41" ry="18"/>
<text text-anchor="middle" x="2808" y="-327.8" font-family="Times,serif" font-size="14.00">PasswordResetService</text>
</g>
<!-- PasswordResetService&#45;&gt;AuthModule -->
<g id="edge26" class="edge">
<title>PasswordResetService&#45;&gt;AuthModule</title>
<path fill="none" stroke="black" d="M2808,-350.03C2808,-374.98 2808,-417 2808,-417 2808,-417 1420.91,-417 1420.91,-417"/>
<polygon fill="black" stroke="black" points="1420.91,-413.5 1410.91,-417 1420.91,-420.5 1420.91,-413.5"/>
</g>
<!-- FilesService -->
<g id="node25" class="node">
<title>FilesService</title>
<ellipse fill="#fdb462" stroke="black" cx="673" cy="-332" rx="58.54" ry="18"/>
<text text-anchor="middle" x="673" y="-327.8" font-family="Times,serif" font-size="14.00">FilesService</text>
</g>
<!-- FilesService&#45;&gt;FilesModule -->
<g id="edge29" class="edge">
<title>FilesService&#45;&gt;FilesModule</title>
<path fill="none" stroke="black" d="M673,-313.51C673,-301.86 673,-289 673,-289 673,-289 1223.39,-289 1223.39,-289 1223.39,-289 1223.39,-284.04 1223.39,-284.04"/>
<polygon fill="black" stroke="black" points="1226.89,-284.04 1223.39,-274.04 1219.89,-284.04 1226.89,-284.04"/>
</g>
<!-- LeadService -->
<g id="node26" class="node">
<title>LeadService</title>
<ellipse fill="#fdb462" stroke="black" cx="1058" cy="-180" rx="59.09" ry="18"/>
<text text-anchor="middle" x="1058" y="-175.8" font-family="Times,serif" font-size="14.00">LeadService</text>
</g>
<!-- LeadService&#45;&gt;LeadModule -->
<g id="edge30" class="edge">
<title>LeadService&#45;&gt;LeadModule</title>
<path fill="none" stroke="black" d="M1037.24,-196.87C1037.24,-196.87 1037.24,-227.85 1037.24,-227.85"/>
<polygon fill="black" stroke="black" points="1033.74,-227.85 1037.24,-237.85 1040.74,-227.85 1033.74,-227.85"/>
</g>
<!-- MailService -->
<g id="node28" class="node">
<title>MailService</title>
<ellipse fill="#fdb462" stroke="black" cx="82" cy="-332" rx="58.46" ry="18"/>
<text text-anchor="middle" x="82" y="-327.8" font-family="Times,serif" font-size="14.00">MailService</text>
</g>
<!-- MailService&#45;&gt;MailModule -->
<g id="edge32" class="edge">
<title>MailService&#45;&gt;MailModule</title>
<path fill="none" stroke="black" d="M82,-313.99C82,-297.95 82,-277 82,-277 82,-277 1336.03,-277 1336.03,-277 1336.03,-277 1336.03,-276.71 1336.03,-276.71"/>
<polygon fill="black" stroke="black" points="1339.53,-284.08 1336.03,-274.08 1332.53,-284.08 1339.53,-284.08"/>
</g>
<!-- MercadopagoService -->
<g id="node30" class="node">
<title>MercadopagoService</title>
<ellipse fill="#fdb462" stroke="black" cx="589" cy="-484" rx="93.16" ry="18"/>
<text text-anchor="middle" x="589" y="-479.8" font-family="Times,serif" font-size="14.00">MercadopagoService</text>
</g>
<!-- MercadopagoService&#45;&gt;MercadopagoModule -->
<g id="edge36" class="edge">
<title>MercadopagoService&#45;&gt;MercadopagoModule</title>
<path fill="none" stroke="black" d="M596.13,-465.89C596.13,-456.1 596.13,-446 596.13,-446 596.13,-446 1178,-446 1178,-446 1178,-446 1178,-436.11 1178,-436.11"/>
<polygon fill="black" stroke="black" points="1181.5,-436.11 1178,-426.11 1174.5,-436.11 1181.5,-436.11"/>
</g>
<!-- BuyerOrdersService -->
<g id="node32" class="node">
<title>BuyerOrdersService</title>
<ellipse fill="#fdb462" stroke="black" cx="1541" cy="-256" rx="89.72" ry="18"/>
<text text-anchor="middle" x="1541" y="-251.8" font-family="Times,serif" font-size="14.00">BuyerOrdersService</text>
</g>
<!-- BuyerOrdersService&#45;&gt;OrdersModule -->
<g id="edge40" class="edge">
<title>BuyerOrdersService&#45;&gt;OrdersModule</title>
<path fill="none" stroke="black" d="M1541,-274.05C1541,-288.37 1541,-306 1541,-306 1541,-306 1237.27,-306 1237.27,-306 1237.27,-306 1237.27,-306.79 1237.27,-306.79"/>
<polygon fill="black" stroke="black" points="1233.77,-303.94 1237.27,-313.94 1240.77,-303.94 1233.77,-303.94"/>
</g>
<!-- PhotographerOrdersService -->
<g id="node33" class="node">
<title>PhotographerOrdersService</title>
<ellipse fill="#fdb462" stroke="black" cx="1767" cy="-256" rx="118.08" ry="18"/>
<text text-anchor="middle" x="1767" y="-251.8" font-family="Times,serif" font-size="14.00">PhotographerOrdersService</text>
</g>
<!-- PhotographerOrdersService&#45;&gt;OrdersModule -->
<g id="edge41" class="edge">
<title>PhotographerOrdersService&#45;&gt;OrdersModule</title>
<path fill="none" stroke="black" d="M1767,-274.24C1767,-289.57 1767,-309 1767,-309 1767,-309 1240.04,-309 1240.04,-309 1240.04,-309 1240.04,-309.49 1240.04,-309.49"/>
<polygon fill="black" stroke="black" points="1236.54,-303.88 1240.04,-313.88 1243.54,-303.88 1236.54,-303.88"/>
</g>
<!-- PaymentService -->
<g id="node35" class="node">
<title>PaymentService</title>
<ellipse fill="#fdb462" stroke="black" cx="366" cy="-332" rx="73.57" ry="18"/>
<text text-anchor="middle" x="366" y="-327.8" font-family="Times,serif" font-size="14.00">PaymentService</text>
</g>
<!-- PaymentService&#45;&gt;PaymentModule -->
<g id="edge44" class="edge">
<title>PaymentService&#45;&gt;PaymentModule</title>
<path fill="none" stroke="black" d="M366,-313.75C366,-299.82 366,-283 366,-283 366,-283 1100.41,-283 1100.41,-283 1100.41,-283 1100.41,-282.12 1100.41,-282.12"/>
<polygon fill="black" stroke="black" points="1103.91,-284.16 1100.41,-274.16 1096.91,-284.16 1103.91,-284.16"/>
</g>
<!-- PhotoService -->
<g id="node37" class="node">
<title>PhotoService</title>
<ellipse fill="#fdb462" stroke="black" cx="289" cy="-408" rx="62.56" ry="18"/>
<text text-anchor="middle" x="289" y="-403.8" font-family="Times,serif" font-size="14.00">PhotoService</text>
</g>
<!-- PhotoService&#45;&gt;PhotoModule -->
<g id="edge48" class="edge">
<title>PhotoService&#45;&gt;PhotoModule</title>
<path fill="none" stroke="black" d="M321.87,-392.68C321.87,-377.34 321.87,-356 321.87,-356 321.87,-356 1043.17,-356 1043.17,-356 1043.17,-356 1043.17,-355.42 1043.17,-355.42"/>
<polygon fill="black" stroke="black" points="1046.67,-360.19 1043.17,-350.19 1039.67,-360.19 1046.67,-360.19"/>
</g>
<!-- SeedService -->
<g id="node38" class="node">
<title>SeedService</title>
<ellipse fill="#fdb462" stroke="black" cx="900" cy="-180" rx="58.53" ry="18"/>
<text text-anchor="middle" x="900" y="-175.8" font-family="Times,serif" font-size="14.00">SeedService</text>
</g>
<!-- SeedService&#45;&gt;SeedModule -->
<g id="edge50" class="edge">
<title>SeedService&#45;&gt;SeedModule</title>
<path fill="none" stroke="black" d="M921.19,-196.87C921.19,-196.87 921.19,-227.85 921.19,-227.85"/>
<polygon fill="black" stroke="black" points="917.69,-227.85 921.19,-237.85 924.69,-227.85 917.69,-227.85"/>
</g>
<!-- SubscriptionService -->
<g id="node40" class="node">
<title>SubscriptionService</title>
<ellipse fill="#fdb462" stroke="black" cx="599" cy="-408" rx="88.62" ry="18"/>
<text text-anchor="middle" x="599" y="-403.8" font-family="Times,serif" font-size="14.00">SubscriptionService</text>
</g>
<!-- SubscriptionService&#45;&gt;SubscriptionModule -->
<g id="edge54" class="edge">
<title>SubscriptionService&#45;&gt;SubscriptionModule</title>
<path fill="none" stroke="black" d="M651.02,-393.11C651.02,-381.73 651.02,-368 651.02,-368 651.02,-368 1273.32,-368 1273.32,-368 1273.32,-368 1273.32,-360.42 1273.32,-360.42"/>
<polygon fill="black" stroke="black" points="1276.82,-360.42 1273.32,-350.42 1269.82,-360.42 1276.82,-360.42"/>
</g>
<!-- UserService -->
<g id="node42" class="node">
<title>UserService</title>
<ellipse fill="#fdb462" stroke="black" cx="2063" cy="-104" rx="58.44" ry="18"/>
<text text-anchor="middle" x="2063" y="-99.8" font-family="Times,serif" font-size="14.00">UserService</text>
</g>
<!-- UserService&#45;&gt;UserModule -->
<g id="edge56" class="edge">
<title>UserService&#45;&gt;UserModule</title>
<path fill="none" stroke="black" d="M2102.12,-117.59C2102.12,-117.59 2102.12,-151.96 2102.12,-151.96"/>
<polygon fill="black" stroke="black" points="2098.62,-151.96 2102.12,-161.96 2105.62,-151.96 2098.62,-151.96"/>
</g>
</g>
</svg>
